<svg width="28" height="28" viewBox="0 0 28 28" fill="none" xmlns="http://www.w3.org/2000/svg">
<path d="M5.75391 4C4.75934 4 3.80552 4.39509 3.10226 5.09835C2.39899 5.80161 2.00391 6.75544 2.00391 7.75V19.25C2.00391 20.2446 2.39899 21.1984 3.10226 21.9017C3.80552 22.6049 4.75934 23 5.75391 23H22.2499C23.2445 23 24.1983 22.6049 24.9016 21.9017C25.6048 21.1984 25.9999 20.2446 25.9999 19.25V7.75C25.9999 6.75544 25.6048 5.80161 24.9016 5.09835C24.1983 4.39509 23.2445 4 22.2499 4H5.75391ZM3.50391 7.75C3.50391 7.15326 3.74096 6.58097 4.16292 6.15901C4.58487 5.73705 5.15717 5.5 5.75391 5.5H22.2499C22.8466 5.5 23.4189 5.73705 23.8409 6.15901C24.2629 6.58097 24.4999 7.15326 24.4999 7.75V8.529L13.9999 13.907L3.50391 8.531V7.75ZM3.50391 10.217L13.6579 15.417C13.7638 15.4712 13.881 15.4995 13.9999 15.4995C14.1188 15.4995 14.2361 15.4712 14.3419 15.417L24.4999 10.215V19.251C24.4999 19.8477 24.2629 20.42 23.8409 20.842C23.4189 21.2639 22.8466 21.501 22.2499 21.501H5.75491C5.15817 21.501 4.58587 21.2639 4.16392 20.842C3.74196 20.42 3.50491 19.8477 3.50491 19.251L3.50391 10.217Z" fill="#D62828"/>
</svg>
