<svg width="48" height="48" viewBox="0 0 48 48" fill="none" xmlns="http://www.w3.org/2000/svg">
<g clip-path="url(#clip0_73_193)">
<path d="M28.53 44.69C28.4845 44.8173 28.4478 44.9476 28.42 45.08C28.5 47.64 28.31 47.29 26.15 47.29H1.88996C0.549961 47.29 0.459961 47.21 0.459961 45.9V1.59997C0.459961 0.329971 0.559961 0.219971 1.79996 0.219971H27.07C28.31 0.219971 28.41 0.329971 28.41 1.60997C28.41 8.9433 28.41 16.2766 28.41 23.61C28.3843 23.9245 28.4366 24.2406 28.5622 24.5301C28.6877 24.8196 28.8828 25.0738 29.13 25.27C29.65 25.7 30.08 26.27 30.59 26.67C30.9899 26.9605 31.2971 27.3607 31.4746 27.822C31.652 28.2834 31.6921 28.7863 31.59 29.27C31.46 29.84 31.75 30.07 32.34 30.1C32.7444 30.1163 33.1317 30.2677 33.44 30.53C37.9733 35.0833 42.4933 39.6633 47 44.27C47.2601 44.6366 47.4324 45.0582 47.5035 45.5022C47.5746 45.9461 47.5426 46.4004 47.41 46.83C47.3124 46.9573 47.1887 47.0624 47.0474 47.1383C46.906 47.2142 46.75 47.2591 46.59 47.27C41.57 47.27 36.5466 47.27 31.52 47.27C31.1639 47.2338 30.8315 47.0747 30.58 46.82C29.92 46.18 29.29 45.48 28.53 44.69ZM17.71 33.12C17.63 32.94 17.62 32.85 17.56 32.79C15.56 30.86 13.64 28.92 11.65 27.01C11.3576 26.805 11.0069 26.6998 10.65 26.71C8.59996 26.71 6.53996 26.71 4.48996 26.71C3.71996 26.71 3.37996 26.41 3.38996 25.62C3.38996 23.41 3.38996 21.21 3.38996 19C3.38996 18.18 3.70996 17.85 4.53996 17.86C6.67996 17.86 8.82996 17.86 10.97 17.86C12.1 17.86 12.23 18 12.23 19.14C12.23 19.48 12.23 19.82 12.23 20.14C12.23 20.46 12.23 21.14 12.44 21.43C13.74 22.81 15.12 24.11 16.72 25.68C18.22 24.06 19.63 22.48 21.11 20.97C22.33 19.71 23.52 19.74 24.78 20.97C25.45 21.61 26.11 22.26 26.87 22.97V6.16997H1.99996V38.39H23.13L23.2 38.12C22.8199 37.9394 22.4157 37.8148 22 37.75C20 37.75 18 37.75 15.94 37.75C15.33 37.75 14.7449 37.5077 14.3136 37.0763C13.8823 36.645 13.64 36.06 13.64 35.45C13.64 34.84 13.8823 34.255 14.3136 33.8236C14.7449 33.3923 15.33 33.15 15.94 33.15C16.5 33.1 17.07 33.12 17.71 33.12ZM32.48 31.62L25.06 39.62C26.95 41.39 29.06 43.36 31.11 45.28C31.4813 45.61 31.9538 45.8039 32.45 45.83C36.71 45.83 40.97 45.83 45.22 45.83C45.49 45.83 45.75 45.83 46.01 45.83L46.19 45.6C41.69 41 37.18 36.39 32.48 31.62ZM21.84 26.53L20.61 27.83L18.89 25.49L17.51 26.59L19.71 28.54L18.62 29.61C16.12 27.17 13.62 24.74 11.17 22.34C10.72 21.9 10.23 21.09 9.51996 21.84C8.80996 22.59 9.67996 22.98 10.1 23.4C13.33 26.58 16.59 29.73 19.81 32.93C20.0611 33.3016 20.2533 33.7097 20.38 34.14C19.9724 34.3457 19.5383 34.4937 19.09 34.58C18.14 34.65 17.19 34.58 16.24 34.58C15.62 34.58 15.09 34.72 15.11 35.44C15.13 36.16 15.63 36.25 16.22 36.25C17.9 36.25 19.59 36.25 21.27 36.25C22.51 36.25 23.64 36.25 24.44 37.4C24.44 37.4 24.56 37.4 24.79 37.47L30.89 31L30.41 30.6C29.86 30.13 29.47 29.68 30 28.88C30.14 28.68 29.86 28.01 29.59 27.74C27.7 25.82 25.76 23.95 23.83 22.07C22.99 21.25 22.69 21.3 21.93 22.37L24.03 24.27L22.79 25.51L21 23.24L19.73 24.52L21.84 26.53ZM26.84 45.77C27.11 44.15 26.99 42.77 25.54 41.77C25.08 41.44 24.77 40.88 24.3 40.55C23.9288 40.2451 23.4773 40.0541 23 40C16.29 40 9.57996 40 2.86996 40C2.57996 40 2.27996 40 1.99996 40V45.79L26.84 45.77ZM1.99996 4.56997H26.86V1.73997H1.99996V4.56997ZM9.84996 25.18L8.69996 24.11C8.30853 23.8087 8.02766 23.3865 7.90106 22.909C7.77446 22.4315 7.80923 21.9256 7.99996 21.47C8.19556 21 8.54348 20.6093 8.98782 20.3609C9.43215 20.1124 9.94711 20.0205 10.45 20.1C10.5496 20.1125 10.6504 20.1125 10.75 20.1V19.45H4.92996V25.21L9.84996 25.18Z" fill="#D62828"/>
<path d="M7.7301 16.4C6.6601 16.4 5.5901 16.4 4.5201 16.4C3.7601 16.4 3.3901 16.14 3.4001 15.33C3.4001 13.0967 3.4001 10.8634 3.4001 8.63005C3.4001 7.84005 3.7401 7.55005 4.5101 7.55005C6.7101 7.55005 8.91343 7.55005 11.1201 7.55005C11.9601 7.55005 12.2501 7.90005 12.2401 8.71005C12.2401 10.88 12.2401 13.06 12.2401 15.23C12.2401 16.11 11.8801 16.43 11.0301 16.4C9.9401 16.37 8.8401 16.4 7.7301 16.4ZM4.9301 14.87H10.7001V9.12005H4.9301V14.87Z" fill="#D62828"/>
<path d="M7.82011 37C6.72011 37 5.61011 37 4.51011 37C3.75011 37 3.3901 36.73 3.4001 35.93C3.4001 33.7 3.4001 31.46 3.4001 29.23C3.4001 28.43 3.7501 28.15 4.5201 28.16C6.7201 28.16 8.9201 28.16 11.1201 28.16C11.9701 28.16 12.2501 28.52 12.2401 29.32C12.2401 31.5 12.2401 33.67 12.2401 35.84C12.2401 36.73 11.8701 37.04 11.0201 37.01C10.0001 37 8.89011 37 7.82011 37ZM4.9201 35.45H10.6801V29.69H4.9201V35.45Z" fill="#D62828"/>
<path d="M13.74 15.61V14.24H25.43V15.61H13.74Z" fill="#D62828"/>
<path d="M13.74 12.66V11.3H22.49V12.66H13.74Z" fill="#D62828"/>
<path d="M18.1499 9.71999V8.35999H25.4299V9.71999H18.1499Z" fill="#D62828"/>
<path d="M13.74 9.74V8.37H16.59V9.74H13.74Z" fill="#D62828"/>
<path d="M13.77 18.64H16.6V20H13.77V18.64Z" fill="#D62828"/>
<path d="M24 12.6801V11.3101H25.39V12.6801H24Z" fill="#D62828"/>
<path d="M19.5499 18.65V20H18.1699V18.65H19.5499Z" fill="#D62828"/>
<path d="M14.39 45.07C14.09 45.07 13.78 45.07 13.47 45.07C12.9321 45.007 12.436 44.7487 12.076 44.344C11.716 43.9394 11.5171 43.4166 11.5171 42.875C11.5171 42.3334 11.716 41.8107 12.076 41.406C12.436 41.0014 12.9321 40.743 13.47 40.68C14.0827 40.64 14.6974 40.64 15.31 40.68C15.8666 40.7176 16.3881 40.9652 16.769 41.3727C17.1499 41.7802 17.3618 42.3172 17.3618 42.875C17.3618 43.4328 17.1499 43.9698 16.769 44.3773C16.3881 44.7848 15.8666 45.0324 15.31 45.07C15.07 45.1 14.73 45.07 14.39 45.07ZM14.39 43.61C14.57 43.61 14.8 43.68 14.93 43.61C15.2522 43.3796 15.5595 43.1291 15.85 42.86C15.5843 42.5897 15.2771 42.3635 14.94 42.19C14.5627 42.0698 14.1574 42.0698 13.78 42.19C13.45 42.31 13.22 42.67 12.94 42.93C13.1934 43.1808 13.4715 43.4052 13.77 43.6C14 43.68 14.22 43.61 14.43 43.61H14.39Z" fill="#D62828"/>
<path d="M13 3.83997V2.46997H18.81V3.83997H13Z" fill="#D62828"/>
<path d="M10.0601 3.84999V2.48999H11.4401V3.84999H10.0601Z" fill="#D62828"/>
</g>
<defs>
<clipPath id="clip0_73_193">
<rect width="48" height="48" fill="white"/>
</clipPath>
</defs>
</svg>
