<svg width="48" height="48" viewBox="0 0 48 48" fill="none" xmlns="http://www.w3.org/2000/svg">
<g clip-path="url(#clip0_73_270)">
<path d="M25.83 25.78C24.51 24.47 23.35 23.3 22.16 22.17C21.55 21.6 21.54 21.17 22.16 20.57C24.95 17.82 27.7 15.04 30.47 12.28C30.6629 12.0364 30.9083 11.8396 31.188 11.7043C31.4677 11.569 31.7744 11.4988 32.085 11.4988C32.3957 11.4988 32.7024 11.569 32.982 11.7043C33.2617 11.8396 33.5072 12.0364 33.7 12.28C34.44 13 35.18 13.73 35.9 14.48C36.1128 14.6676 36.2833 14.8985 36.4 15.1571C36.5168 15.4157 36.5772 15.6962 36.5772 15.98C36.5772 16.2637 36.5168 16.5442 36.4 16.8028C36.2833 17.0615 36.1128 17.2923 35.9 17.48C35.76 17.64 35.6 17.79 35.45 17.94L6.80003 46.62C5.29003 48.12 4.37003 48.11 2.85003 46.62C2.29003 46.05 1.72003 45.5 1.17003 44.93C0.911115 44.7342 0.701113 44.481 0.556518 44.1904C0.411922 43.8998 0.33667 43.5796 0.33667 43.255C0.33667 42.9304 0.411922 42.6102 0.556518 42.3195C0.701113 42.0289 0.911115 41.7758 1.17003 41.58C3.86003 38.87 6.57003 36.17 9.27003 33.47L19.39 23.34C19.59 23.14 19.76 22.86 20 22.8C20.144 22.755 20.2958 22.7406 20.4456 22.7578C20.5955 22.775 20.74 22.8235 20.87 22.9C21.02 23.01 21.01 23.46 20.92 23.69C20.7615 23.9532 20.5545 24.1839 20.31 24.37L2.48003 42.2C1.48003 43.2 1.48003 43.27 2.48003 44.2C2.99003 44.71 3.54003 45.2 4.02003 45.76C4.50003 46.32 5.11003 46.35 5.70003 45.76C6.92003 44.5 8.19003 43.27 9.44003 42C14.6134 36.8466 19.8 31.6866 25 26.52C25.18 26.28 25.46 26.09 25.83 25.78ZM26.83 24.66C29.52 21.97 32.27 19.25 34.97 16.48C35.0435 16.3056 35.0728 16.1158 35.0554 15.9274C35.0379 15.739 34.9743 15.5579 34.87 15.4C34.23 14.63 33.47 13.96 32.76 13.24C32.29 12.76 31.88 12.84 31.43 13.3C30.67 14.08 29.88 14.85 29.11 15.63L23.46 21.27L26.83 24.66Z" fill="#D62828"/>
<path d="M41.14 27.1001C40.8644 26.8387 40.6195 26.5468 40.41 26.2301C39.99 25.3101 39.67 24.3501 39.22 23.4501C39.0289 23.09 38.7323 22.7969 38.37 22.6101C37.5 22.1801 36.56 21.8701 35.69 21.4501C35.4 21.3101 35.04 20.9801 35.02 20.7201C35.0525 20.5544 35.1264 20.3997 35.2348 20.2703C35.3432 20.1409 35.4826 20.041 35.64 19.9801C36.8198 19.7529 37.9043 19.1769 38.7529 18.3264C39.6016 17.476 40.1754 16.3903 40.4 15.2101C40.4568 15.0471 40.5548 14.9015 40.6844 14.7876C40.8141 14.6737 40.9711 14.5953 41.14 14.5601C41.3053 14.5984 41.4581 14.6782 41.5841 14.7919C41.7101 14.9056 41.805 15.0495 41.86 15.2101C42.09 16.3933 42.6677 17.4811 43.5191 18.3344C44.3706 19.1877 45.4572 19.7676 46.64 20.0001C46.7993 20.0597 46.9407 20.1589 47.051 20.2884C47.1612 20.4179 47.2366 20.5733 47.27 20.7401C47.2332 20.9072 47.1541 21.0621 47.0403 21.1899C46.9265 21.3177 46.7818 21.4142 46.62 21.4701C45.4402 21.6972 44.3558 22.2732 43.5071 23.1237C42.6585 23.9741 42.0847 25.0598 41.86 26.2401C41.79 26.4901 41.45 26.7201 41.14 27.1001ZM37.56 20.6801C38.458 20.8459 39.2842 21.281 39.929 21.9276C40.5738 22.5742 41.0066 23.4016 41.17 24.3001C41.3211 23.4026 41.7432 22.5728 42.3796 21.9221C43.0159 21.2715 43.8361 20.8311 44.73 20.6601C43.8347 20.5185 43.0069 20.0982 42.3642 19.4591C41.7215 18.82 41.2966 17.9945 41.15 17.1001C40.9967 17.9954 40.5688 18.8209 39.9257 19.4623C39.2825 20.1037 38.4558 20.5293 37.56 20.6801Z" fill="#D62828"/>
<path d="M27.38 0.52002C27.6443 0.78633 27.8821 1.0777 28.09 1.39002C28.49 2.28002 28.81 3.21002 29.25 4.07002C29.4717 4.49891 29.8212 4.84834 30.25 5.07002C31.12 5.51002 32.06 5.81002 32.94 6.24002C33.0892 6.31699 33.2206 6.4244 33.3257 6.55531C33.4307 6.68622 33.5072 6.83772 33.55 7.00002C33.55 7.21002 33.2101 7.56002 32.9501 7.68002C32.0401 8.11002 31.08 8.43002 30.18 8.87002C29.8163 9.05949 29.5195 9.35623 29.33 9.72002C28.9 10.59 28.59 11.53 28.17 12.4C28.03 12.69 27.7001 13.06 27.4401 13.07C27.2737 13.04 27.1176 12.9684 26.9864 12.8617C26.8553 12.755 26.7533 12.6168 26.6901 12.46C26.4758 11.2752 25.9054 10.1839 25.055 9.33166C24.2045 8.47941 23.1144 7.90673 21.93 7.69002C21.7708 7.63042 21.6293 7.53118 21.5191 7.4017C21.4089 7.27221 21.3335 7.11676 21.3 6.95002C21.3375 6.78583 21.4158 6.63374 21.5276 6.50787C21.6395 6.38201 21.7814 6.28643 21.9401 6.23002C23.1189 5.99796 24.2009 5.41733 25.046 4.56332C25.8911 3.7093 26.4604 2.62124 26.68 1.44002C26.7101 1.13002 27.06 0.90002 27.38 0.52002ZM23.89 7.00002C24.7157 7.25966 25.4952 7.64775 26.2001 8.15002C26.7098 8.86779 27.1045 9.66064 27.3701 10.5C27.6603 9.63912 28.0783 8.82671 28.6101 8.09002C29.3084 7.60356 30.0821 7.23531 30.9 7.00002C30.0159 6.81859 29.2074 6.37376 28.5809 5.72404C27.9544 5.07433 27.5392 4.25018 27.39 3.36002C27.2338 4.24563 26.8176 5.06471 26.1943 5.71294C25.571 6.36117 24.7689 6.80922 23.89 7.00002Z" fill="#D62828"/>
<path d="M41.16 13.31C40.84 12.97 40.5 12.77 40.44 12.51C40.2177 11.2959 39.6306 10.1784 38.757 9.30653C37.8833 8.43464 36.7646 7.84982 35.55 7.63005C35.4081 7.56181 35.2844 7.46103 35.1888 7.33591C35.0932 7.2108 35.0285 7.06488 35 6.91005C35.0383 6.75847 35.1117 6.61799 35.2141 6.4999C35.3166 6.3818 35.4453 6.28938 35.59 6.23005C36.7876 6.01055 37.89 5.43192 38.7509 4.571C39.6119 3.71008 40.1905 2.60762 40.41 1.41005C40.4813 1.25305 40.5894 1.1156 40.7252 1.00939C40.861 0.903183 41.0205 0.831364 41.19 0.800049C41.39 0.800049 41.73 1.14005 41.86 1.41005C42.29 2.32005 42.62 3.28005 43.06 4.17005C43.2495 4.53384 43.5462 4.83058 43.91 5.02005C44.79 5.45005 45.72 5.76005 46.6 6.19005C46.89 6.33005 47.31 6.70005 47.28 6.90005C47.1576 7.24962 46.9026 7.53698 46.57 7.70005C45.75 8.11005 44.86 8.37005 44.06 8.80005C43.6116 9.05698 43.2443 9.43464 43 9.89005C42.55 10.72 42.27 11.63 41.87 12.49C41.6681 12.7917 41.4297 13.0671 41.16 13.31ZM44.72 6.93005C43.8204 6.77263 42.9919 6.33983 42.3489 5.6914C41.7058 5.04297 41.2799 4.21089 41.13 3.31005C40.9963 4.22477 40.5773 5.07394 39.9327 5.73653C39.288 6.39912 38.4507 6.8413 37.54 7.00005C38.44 7.14797 39.2719 7.57193 39.9204 8.2133C40.5689 8.85466 41.0021 9.68172 41.16 10.58C41.2939 9.67444 41.71 8.83415 42.3492 8.1788C42.9884 7.52345 43.818 7.08646 44.72 6.93005Z" fill="#D62828"/>
</g>
<defs>
<clipPath id="clip0_73_270">
<rect width="48" height="48" fill="white"/>
</clipPath>
</defs>
</svg>
