<svg width="48" height="48" viewBox="0 0 48 48" fill="none" xmlns="http://www.w3.org/2000/svg">
<g clip-path="url(#clip0_73_277)">
<path d="M16.16 25.71L23.6 33.16C23.96 33.51 24.19 33.68 24.42 33.68C24.65 33.68 24.88 33.51 25.22 33.16L32.58 25.81L32.69 25.69C32.7824 25.6125 32.8663 25.5254 32.94 25.43V25.32C32.9693 25.0282 32.9174 24.7341 32.79 24.47C32.7491 24.4095 32.6963 24.358 32.6349 24.3186C32.5735 24.2791 32.5048 24.2525 32.4328 24.2403C32.3608 24.2282 32.2872 24.2308 32.2162 24.2479C32.1453 24.265 32.0785 24.2963 32.02 24.34C31.8302 24.4582 31.6556 24.5993 31.5 24.76L28.08 28.19L26.08 30.19L25.73 30.51L25.08 31.11V12.45C25.0911 12.3169 25.0911 12.1831 25.08 12.05C25.0591 11.8724 24.9738 11.7086 24.8401 11.5898C24.7065 11.4709 24.5339 11.4053 24.355 11.4053C24.1762 11.4053 24.0036 11.4709 23.8699 11.5898C23.7363 11.7086 23.6509 11.8724 23.63 12.05C23.6146 12.1829 23.6146 12.3171 23.63 12.45V31.12L17.24 24.7C17.1467 24.5961 17.0428 24.5022 16.93 24.42C16.7867 24.2981 16.601 24.2381 16.4135 24.2531C16.226 24.2681 16.0521 24.3569 15.93 24.5C15.8013 24.6169 15.723 24.7793 15.7118 24.9528C15.7006 25.1264 15.7574 25.2975 15.87 25.43C15.955 25.5347 16.0523 25.6288 16.16 25.71Z" fill="#D62828"/>
<path d="M34.9199 37.55C34.8202 37.5396 34.7196 37.5396 34.6199 37.55H14.2099C14.1168 37.5405 14.023 37.5405 13.9299 37.55C13.76 37.5725 13.6055 37.6603 13.4991 37.7946C13.3928 37.929 13.3428 38.0995 13.3599 38.27C13.3421 38.4387 13.389 38.6079 13.4911 38.7434C13.5932 38.8788 13.7428 38.9706 13.9099 39C14.0127 39.0149 14.1171 39.0149 14.2199 39H34.7299H34.9099C35.0698 38.9576 35.2113 38.8636 35.3122 38.7324C35.4131 38.6013 35.4679 38.4405 35.4679 38.275C35.4679 38.1095 35.4131 37.9487 35.3122 37.8176C35.2113 37.6865 35.0698 37.5924 34.9099 37.55H34.9199Z" fill="#D62828"/>
<path d="M24.18 47.7701C19.4877 47.7721 14.9003 46.3823 10.9981 43.7767C7.09581 41.1711 4.054 37.4666 2.25745 33.132C0.460903 28.7973 -0.00967506 24.0272 0.905248 19.425C1.82017 14.8228 4.07949 10.5954 7.39739 7.27752C10.7153 3.95961 14.9427 1.7003 19.5449 0.785374C24.147 -0.129548 28.9172 0.34103 33.2518 2.13758C37.5865 3.93413 41.291 6.97593 43.8966 10.8782C46.5022 14.7805 47.8919 19.3679 47.89 24.0601C47.882 30.3459 45.3815 36.3721 40.9367 40.8168C36.4919 45.2616 30.4658 47.7621 24.18 47.7701ZM24.18 1.89009C19.7947 1.88811 15.5074 3.18668 11.8602 5.62154C8.21309 8.05641 5.36995 11.5182 3.69042 15.5691C2.01089 19.6199 1.57043 24.0779 2.42473 28.3791C3.27904 32.6803 5.38973 36.6316 8.48987 39.7331C11.59 42.8346 15.5403 44.9471 19.8411 45.8034C24.142 46.6596 28.6001 46.2212 32.6517 44.5435C36.7034 42.8658 40.1664 40.0242 42.6029 36.3781C45.0395 32.7321 46.34 28.4453 46.34 24.0601C46.3347 18.1836 43.9986 12.5492 39.8442 8.39291C35.6898 4.23666 30.0565 1.89803 24.18 1.89009Z" fill="#D62828"/>
<path d="M38.5764 6.71805L6.8147 39.186L7.88696 40.235L39.6487 7.76699L38.5764 6.71805Z" fill="#D62828"/>
</g>
<defs>
<clipPath id="clip0_73_277">
<rect width="48" height="48" fill="white"/>
</clipPath>
</defs>
</svg>
