<svg width="48" height="48" viewBox="0 0 48 48" fill="none" xmlns="http://www.w3.org/2000/svg">
<g clip-path="url(#clip0_73_408)">
<path d="M15.4899 10.56C15.4899 8.69997 15.4899 6.95997 15.4899 5.21997C15.4899 3.47997 15.9299 2.76997 17.7299 2.29997C19.8599 1.74997 21.9999 1.17997 24.1299 0.639973C24.4162 0.56709 24.714 0.551307 25.0064 0.593527C25.2988 0.635746 25.58 0.735141 25.834 0.886036C26.0879 1.03693 26.3097 1.23637 26.4866 1.47297C26.6635 1.70957 26.792 1.97869 26.8649 2.26497C26.9378 2.55126 26.9536 2.84909 26.9113 3.14147C26.8691 3.43385 26.7697 3.71505 26.6188 3.96902C26.4679 4.22299 26.2685 4.44475 26.0319 4.62164C25.7953 4.79853 25.5262 4.92709 25.2399 4.99997C23.6999 5.41997 22.1599 5.79997 20.6299 6.23997C20.3799 6.30997 20.0399 6.61997 20.0299 6.82997C19.9999 7.99997 19.9999 9.21997 19.9999 10.56H31.2599C33.4099 10.56 33.8699 11.03 33.8699 13.22C33.8699 13.99 34.0099 14.97 33.2199 15.28C31.5599 15.93 32.1299 17.34 31.7799 18.4C33.7799 18.69 35.6299 18.86 37.4599 19.27C40.2408 19.8371 42.7853 21.2314 44.7599 23.27C45.7976 24.3621 46.5868 25.6658 47.0736 27.0915C47.5603 28.5172 47.733 30.0313 47.5799 31.53C47.5199 32.53 46.9199 33 45.4999 33.25L45.1899 34.42C45.6973 34.5997 46.1451 34.9161 46.4839 35.3344C46.8228 35.7526 47.0394 36.2563 47.1099 36.79C47.218 37.256 47.18 37.744 47.0011 38.1877C46.8222 38.6314 46.511 39.0093 46.1099 39.27C45.0499 39.84 45.0499 40.61 45.1999 41.54C45.2599 41.54 45.3099 41.64 45.3599 41.65C47.4599 41.83 47.6199 41.95 47.6299 43.35C47.6299 46.05 46.8199 47.35 44.9599 47.53C44.6499 47.53 44.3499 47.53 44.0399 47.53H9.2899C7.2899 47.53 6.5099 46.82 6.2899 44.8C5.1899 36.8933 4.09323 28.9866 2.9999 21.08C2.7899 19.53 2.6099 17.98 2.3599 16.44C2.32274 16.2807 2.25289 16.1309 2.15476 16.0001C2.05664 15.8692 1.93239 15.7602 1.7899 15.68C1.41403 15.5395 1.09195 15.2842 0.869368 14.9503C0.646787 14.6165 0.53501 14.221 0.5499 13.82V13.55C0.5499 10.93 0.8999 10.55 3.4899 10.55H15.4899V10.56ZM30.7399 15.76H20.8299C20.4352 15.8153 20.0346 15.8153 19.6399 15.76C19.3187 15.6053 19.0248 15.3992 18.7699 15.15C19.0348 14.8801 19.3301 14.6418 19.6499 14.44C19.8399 14.33 20.1299 14.44 20.3699 14.44C24.0499 14.44 27.7199 14.44 31.3699 14.44C32.3699 14.44 32.5499 14.04 32.4999 13.18C32.4499 11.98 32.4999 11.96 31.3499 11.96H3.0899C1.9599 11.96 1.9399 11.96 1.9399 13.17C1.9399 14.38 1.9399 14.42 3.1299 14.42H15.8999C16.3999 14.42 16.8999 14.56 16.8199 15.14C16.8199 15.4 16.2599 15.62 15.9199 15.79C15.7085 15.8303 15.4913 15.8303 15.2799 15.79H3.6799L5.5199 29.22C5.63964 29.2312 5.76016 29.2312 5.8799 29.22C9.8199 27.8866 13.7566 26.5533 17.6899 25.22C17.9698 25.1095 18.2078 24.9135 18.3699 24.66C19.7589 22.6181 21.752 21.062 24.0699 20.21C26.0699 19.47 28.1599 19.02 30.3899 18.38L30.7399 15.76ZM32.0999 31.76C36.4799 31.76 40.8499 31.76 45.2199 31.76C45.9799 31.76 46.2199 31.54 46.2199 30.76C46.2817 29.005 45.8448 27.2684 44.9598 25.7516C44.0749 24.2348 42.7781 22.9998 41.2199 22.19C39.0396 20.9345 36.6004 20.1956 34.0899 20.03C30.0372 19.5444 25.9398 20.4506 22.4699 22.6C21.0698 23.4408 19.9181 24.6385 19.1327 26.0704C18.3473 27.5024 17.9564 29.1173 17.9999 30.75C17.9999 31.57 18.2499 31.75 19.0499 31.75C23.4099 31.75 27.7599 31.77 32.0999 31.77V31.76ZM18.0999 43.09C17.8499 45.69 18.2599 46.15 20.6699 46.15H43.6699C44.0361 46.1752 44.4037 46.1752 44.7699 46.15C45.1121 46.1383 45.4378 45.9998 45.6836 45.7614C45.9294 45.523 46.0778 45.2017 46.0999 44.86C46.1303 44.2837 46.1303 43.7062 46.0999 43.13H35.0999C34.5899 43.13 34.0299 43.13 34.0099 42.45C33.9899 41.77 34.5799 41.71 35.1299 41.71H43.5699V40H20.6099V41.67H30.7499C30.9699 41.67 31.2299 41.6 31.3899 41.67C31.6742 41.8785 31.9386 42.1129 32.1799 42.37C31.9305 42.621 31.6557 42.8456 31.3599 43.04C31.1192 43.091 30.8706 43.091 30.6299 43.04H18.1099L18.0999 43.09ZM7.1699 41.29C10.3899 40.18 13.4999 39.1 16.6199 38C16.8099 37.93 17.1099 37.71 17.0999 37.57C16.9999 36 17.7599 35 19.2799 34.31C18.9199 33.87 18.6799 33.31 18.2799 33.21C17.0899 32.81 16.6199 32.37 16.6699 31.12C16.7199 29.87 16.8799 28.35 16.9999 26.91L5.7199 30.7L7.1699 41.29ZM24.9299 36.06C24.2175 36.5547 23.3656 36.809 22.4986 36.7856C21.6315 36.7622 20.7946 36.4624 20.1099 35.93C19.969 35.858 19.8131 35.8205 19.6549 35.8205C19.4967 35.8205 19.3408 35.858 19.1999 35.93C18.9174 36.065 18.6965 36.302 18.5815 36.5932C18.4665 36.8844 18.4659 37.2083 18.5799 37.5C18.6809 37.8255 18.8941 38.1046 19.1816 38.2878C19.4691 38.4709 19.8122 38.5461 20.1499 38.5C28.1499 38.5 36.1499 38.5 44.1499 38.5C44.6586 38.4823 45.1414 38.2713 45.4999 37.91C45.6109 37.7914 45.6964 37.6514 45.7513 37.4986C45.8061 37.3457 45.8291 37.1833 45.8188 37.0212C45.8085 36.8591 45.7651 36.7009 45.6913 36.5562C45.6176 36.4116 45.515 36.2835 45.3899 36.18C45.3027 36.0644 45.1914 35.9691 45.0638 35.9007C44.9362 35.8324 44.7952 35.7925 44.6507 35.784C44.5061 35.7754 44.3615 35.7983 44.2267 35.8512C44.0919 35.904 43.9701 35.9855 43.8699 36.09C43.303 36.4914 42.6369 36.7297 41.944 36.7791C41.2511 36.8285 40.558 36.687 39.9399 36.37C39.6181 36.2459 39.2617 36.2459 38.9399 36.37C38.3521 36.7371 37.673 36.9318 36.9799 36.9318C36.2868 36.9318 35.6077 36.7371 35.0199 36.37C34.8856 36.306 34.7387 36.2728 34.5899 36.2728C34.4411 36.2728 34.2942 36.306 34.1599 36.37C33.5759 36.7475 32.8953 36.9484 32.1999 36.9484C31.5045 36.9484 30.8239 36.7475 30.2399 36.37C30.1358 36.303 30.018 36.2601 29.8951 36.2445C29.7722 36.2289 29.6475 36.2411 29.5299 36.28C28.8511 36.7686 28.0269 37.0128 27.1915 36.9729C26.3561 36.9329 25.5589 36.6111 24.9299 36.06ZM7.3599 42.7C7.4699 43.5 7.5999 44.25 7.6799 45C7.67484 45.1678 7.7069 45.3346 7.77379 45.4886C7.84068 45.6426 7.94075 45.7799 8.06685 45.8907C8.19295 46.0015 8.34197 46.0831 8.50327 46.1297C8.66456 46.1762 8.83414 46.1866 8.9999 46.16C11.4799 46.16 13.9999 46.16 16.4399 46.16C16.6328 46.1316 16.8211 46.0778 16.9999 46C16.9141 45.7862 16.8471 45.5654 16.7999 45.34C16.5999 42.34 16.3999 41.46 18.9499 41.61C18.9499 41.61 19.0499 41.55 19.1599 41.48C19.1599 41.13 19.1599 40.73 19.1599 40.34C19.1599 39.78 18.0999 38.95 17.5699 39.13C14.1599 40.33 10.7899 41.51 7.3599 42.7ZM20.2899 33.22C20.3077 33.6532 20.4471 34.0726 20.6921 34.4303C20.9371 34.7879 21.2778 35.0695 21.6753 35.2426C22.0727 35.4158 22.5109 35.4736 22.9397 35.4095C23.3684 35.3454 23.7705 35.1619 24.0999 34.88C24.2179 34.7636 24.3584 34.6725 24.5128 34.6123C24.6671 34.552 24.8322 34.5238 24.9978 34.5294C25.1634 34.535 25.3262 34.5743 25.4761 34.6449C25.6261 34.7155 25.76 34.8159 25.8699 34.94C26.0576 35.1528 26.2884 35.3232 26.547 35.44C26.8056 35.5567 27.0862 35.6171 27.3699 35.6171C27.6537 35.6171 27.9342 35.5567 28.1928 35.44C28.4514 35.3232 28.6822 35.1528 28.8699 34.94C28.9795 34.8025 29.1187 34.6914 29.2771 34.6151C29.4355 34.5388 29.6091 34.4991 29.7849 34.4991C29.9607 34.4991 30.1343 34.5388 30.2927 34.6151C30.4511 34.6914 30.5903 34.8025 30.6999 34.94C30.8866 35.1351 31.1109 35.2904 31.3592 35.3965C31.6076 35.5025 31.8748 35.5572 32.1449 35.5572C32.415 35.5572 32.6822 35.5025 32.9306 35.3965C33.1789 35.2904 33.4032 35.1351 33.5899 34.94C33.7063 34.7847 33.8573 34.6587 34.0309 34.5719C34.2045 34.4852 34.3958 34.44 34.5899 34.44C34.784 34.44 34.9753 34.4852 35.1489 34.5719C35.3225 34.6587 35.4735 34.7847 35.5899 34.94C35.7579 35.1235 35.9609 35.2716 36.1869 35.3756C36.4129 35.4797 36.6573 35.5376 36.906 35.546C37.1546 35.5544 37.4025 35.513 37.635 35.4244C37.8674 35.3358 38.0799 35.2017 38.2599 35.03C39.0499 34.29 39.6299 34.4 40.4899 34.95C40.8223 35.1857 41.2129 35.3259 41.6193 35.3552C42.0258 35.3846 42.4325 35.302 42.7953 35.1165C43.1581 34.931 43.4631 34.6496 43.6773 34.3029C43.8914 33.9562 44.0064 33.5574 44.0099 33.15L20.2899 33.22ZM18.5799 10.51C18.5799 9.03997 18.5799 7.63997 18.5799 6.23997C18.5544 6.09761 18.5582 5.95153 18.5912 5.81071C18.6243 5.6699 18.6858 5.53733 18.772 5.42118C18.8581 5.30502 18.9672 5.20773 19.0924 5.13529C19.2176 5.06285 19.3562 5.0168 19.4999 4.99997C21.3099 4.56997 23.0999 4.06997 24.8999 3.59997C25.4299 3.45997 25.8199 3.16997 25.6999 2.59997C25.5799 2.02997 25.0599 1.83997 24.4899 1.97997C22.2199 2.56997 19.9399 3.13997 17.6799 3.77997C17.3799 3.86997 16.9499 4.27997 16.9399 4.54997C16.8799 6.54997 16.9399 8.54997 16.9399 10.55L18.5799 10.51Z" fill="#D62828"/>
<path d="M34.25 23.49C33.94 22.95 33.62 22.64 33.67 22.41C33.7338 22.2667 33.8304 22.1405 33.952 22.0415C34.0736 21.9425 34.2168 21.8734 34.37 21.84C34.53 21.84 34.92 22.23 34.91 22.45C34.9 22.67 34.6 23 34.25 23.49Z" fill="#D62828"/>
<path d="M36.4801 24.71C36.8001 25.24 37.1301 25.54 37.0901 25.77C37.032 25.9165 36.9402 26.0472 36.822 26.1515C36.7038 26.2557 36.5627 26.3306 36.4101 26.37C36.2401 26.37 35.8501 25.98 35.8401 25.75C35.8301 25.52 36.1401 25.23 36.4801 24.71Z" fill="#D62828"/>
<path d="M30 23.46C29.63 22.98 29.3 22.73 29.29 22.46C29.28 22.19 29.67 21.81 29.85 21.83C30.0076 21.8581 30.1562 21.9236 30.2832 22.021C30.4102 22.1185 30.512 22.245 30.58 22.39C30.65 22.63 30.32 22.94 30 23.46Z" fill="#D62828"/>
<path d="M40.8401 26.75C40.4901 26.27 40.1601 26.01 40.1501 25.75C40.1401 25.49 40.5401 25.11 40.7201 25.13C40.8779 25.1616 41.0258 25.2308 41.1511 25.3318C41.2765 25.4328 41.3756 25.5625 41.4401 25.71C41.4901 25.94 41.1501 26.24 40.8401 26.75Z" fill="#D62828"/>
<path d="M21.2899 28C21.6299 28.5 21.9499 28.77 21.9399 29C21.9299 29.23 21.5299 29.64 21.3599 29.61C21.2026 29.5725 21.0567 29.4974 20.9348 29.3912C20.8129 29.2849 20.7186 29.1507 20.6599 29C20.6199 28.84 20.9999 28.54 21.2899 28Z" fill="#D62828"/>
<path d="M31.0001 29.07C30.4801 29.38 30.1801 29.71 29.9401 29.67C29.7919 29.6078 29.661 29.5107 29.5583 29.3871C29.4556 29.2635 29.3842 29.117 29.3501 28.96C29.3501 28.81 29.7601 28.41 29.9801 28.42C30.2001 28.43 30.5001 28.74 31.0001 29.07Z" fill="#D62828"/>
<path d="M39.66 29.07C39.14 29.39 38.83 29.71 38.6 29.67C38.4546 29.613 38.3246 29.5226 38.2204 29.4063C38.1162 29.2899 38.0407 29.1508 38 29C38 28.83 38.4 28.44 38.62 28.45C38.84 28.46 39.16 28.73 39.66 29.07Z" fill="#D62828"/>
<path d="M24.4801 25.73C23.9601 26.07 23.6601 26.4 23.4801 26.36C23.3306 26.3023 23.1971 26.2095 23.091 26.0894C22.9848 25.9693 22.9091 25.8254 22.8701 25.67C22.8701 25.52 23.2501 25.11 23.4701 25.1C23.6901 25.09 24.0001 25.4 24.4801 25.73Z" fill="#D62828"/>
<path d="M27.6001 26.51C27.4501 26.23 27.1501 25.94 27.1801 25.68C27.2282 25.5387 27.3127 25.4125 27.425 25.3142C27.5374 25.2159 27.6736 25.1489 27.8201 25.12C27.9662 25.1562 28.0999 25.231 28.2072 25.3365C28.3145 25.4421 28.3915 25.5745 28.4301 25.72C28.4301 25.98 28.1201 26.25 27.9401 26.52L27.6001 26.51Z" fill="#D62828"/>
<path d="M32.0699 26.76C31.7699 26.23 31.4399 25.92 31.4899 25.69C31.5557 25.5444 31.6554 25.4166 31.7806 25.3175C31.9059 25.2183 32.0531 25.1506 32.2099 25.12C32.3899 25.12 32.7699 25.54 32.7599 25.76C32.7499 25.98 32.4299 26.27 32.0699 26.76Z" fill="#D62828"/>
<path d="M25.45 29.81C25.29 29.54 25 29.25 25.02 28.98C25.0655 28.8389 25.1479 28.7126 25.2586 28.6141C25.3694 28.5156 25.5046 28.4486 25.65 28.42C25.7935 28.456 25.9248 28.5296 26.0303 28.6334C26.1358 28.7371 26.2117 28.8672 26.25 29.01C26.25 29.27 25.96 29.55 25.79 29.82L25.45 29.81Z" fill="#D62828"/>
<path d="M34.2299 30C33.9499 29.5 33.6499 29.21 33.6699 28.94C33.6899 28.67 34.0899 28.54 34.3199 28.35C34.5299 28.59 34.8699 28.82 34.9099 29.09C34.9499 29.36 34.5799 29.58 34.2299 30Z" fill="#D62828"/>
<path d="M44.0001 28.9999C43.5001 29.3499 43.2201 29.6899 43.0001 29.6599C42.8473 29.6082 42.7093 29.5202 42.5978 29.4035C42.4864 29.2869 42.4048 29.145 42.3601 28.9899C42.3601 28.8399 42.7301 28.4199 42.9501 28.3999C43.1701 28.3799 43.4601 28.6999 44.0001 28.9999Z" fill="#D62828"/>
</g>
<defs>
<clipPath id="clip0_73_408">
<rect width="48" height="48" fill="white"/>
</clipPath>
</defs>
</svg>
