<svg width="48" height="48" viewBox="0 0 48 48" fill="none" xmlns="http://www.w3.org/2000/svg">
<g clip-path="url(#clip0_73_423)">
<path d="M9.11991 45.15C8.95479 45.6999 8.59408 46.1703 8.10586 46.4724C7.61765 46.7746 7.03571 46.8875 6.46991 46.79C5.15991 46.79 3.84991 46.79 2.53991 46.79C2.223 46.842 1.89822 46.8169 1.59305 46.7169C1.28788 46.6168 1.01128 46.4448 0.786662 46.2152C0.562039 45.9857 0.395993 45.7055 0.302566 45.3982C0.209138 45.0909 0.191078 44.7657 0.249912 44.45C0.249912 39.87 0.249912 35.29 0.249912 30.71C0.249912 29.09 0.999912 28.37 2.60991 28.35C3.91991 28.35 5.22991 28.35 6.53991 28.35C8.14991 28.35 8.60991 28.67 9.22991 30.25C10.1099 30.02 11.0099 29.8 11.8899 29.53C12.7692 29.2582 13.6934 29.1625 14.6097 29.2483C15.526 29.3341 16.4164 29.5997 17.2299 30.03C20.2299 31.5 23.1399 32.96 26.1299 34.36C27.7399 35.12 28.7099 36.19 28.3799 38.2C28.8299 38.03 29.1999 37.92 29.5499 37.77L42.9999 32.32C43.9037 31.8728 44.9431 31.7835 45.9099 32.07C46.4309 32.2269 46.8961 32.5297 47.2505 32.9426C47.6049 33.3555 47.8338 33.8612 47.9099 34.4C47.9887 34.9181 47.9027 35.4478 47.664 35.9144C47.4254 36.3809 47.0461 36.7607 46.5799 37L30.6899 47C28.9399 48.11 27.0199 48 25.0799 47.7L9.58991 45.18L9.11991 45.15ZM9.11991 31.34C9.11991 35.47 9.11991 39.49 9.11991 43.51C9.11991 44.07 9.38991 44.15 9.83991 44.23C15.0999 45.07 20.3599 45.91 25.6099 46.79C26.5569 46.9886 27.5353 46.9834 28.4801 46.7748C29.425 46.5661 30.3146 46.1589 31.0899 45.58C31.3899 45.36 31.7199 45.18 32.0399 44.98L45.7999 36.32C46.5599 35.84 47.1499 35.32 46.8599 34.32C46.708 33.8883 46.4127 33.5219 46.0233 33.2816C45.6338 33.0414 45.1738 32.942 44.7199 33C44.2247 33.0417 43.739 33.1598 43.2799 33.35C38.6099 35.23 33.9299 37.11 29.2799 39.03C24.3799 41.03 24.8899 40.86 20.4599 38.7C19.4599 38.23 18.4599 37.78 17.5199 37.26C17.3299 37.15 17.2699 36.79 17.1399 36.55C17.3941 36.4585 17.6602 36.4046 17.9299 36.39C18.1676 36.4541 18.3938 36.5553 18.5999 36.69C20.3099 37.52 21.9999 38.38 23.7299 39.17C24.3635 39.4569 25.0816 39.4959 25.7425 39.2793C26.4034 39.0627 26.9591 38.6062 27.2999 38C27.7899 36.94 27.2399 36 25.6599 35.24L16.5099 30.78C15.3404 30.1604 13.9816 29.9999 12.6999 30.33C11.5299 30.67 10.3599 31 9.12991 31.34H9.11991ZM8.11991 37.55C8.11991 35.28 8.11991 33.01 8.11991 30.74C8.11991 29.68 7.81991 29.4 6.78991 29.39C5.38991 29.39 3.98991 29.39 2.58991 29.39C1.50991 29.39 1.25991 29.64 1.25991 30.71C1.25991 35.2766 1.25991 39.8533 1.25991 44.44C1.25991 45.49 1.51991 45.73 2.60991 45.74H6.43991C7.91991 45.74 8.12991 45.54 8.12991 44.09L8.11991 37.55Z" fill="#D62828"/>
<path d="M2.75991 33.64C2.75991 31.05 2.58991 31.24 5.21991 31.25C6.42991 31.25 6.57991 31.4 6.58991 32.57C6.58991 33.38 6.58991 34.19 6.58991 35C6.58991 35.81 6.20991 36.21 5.38991 36.15H5.29991C2.55991 36.17 2.74991 36.32 2.75991 33.64ZM5.51991 35.12V32.3H3.82991V35.12H5.51991Z" fill="#D62828"/>
<path d="M7.33011 18.82C6.33011 19.28 5.49011 19.73 4.59011 20.11C4.28724 20.1913 3.97295 20.2218 3.66011 20.2C3.63165 19.8916 3.65532 19.5806 3.73011 19.28C4.82011 17 6.00011 14.72 7.05011 12.44C7.3265 11.9544 7.44958 11.3966 7.40318 10.8398C7.35678 10.2829 7.14306 9.75318 6.79011 9.32002C6.00011 8.23002 6.00011 7.72002 6.75011 6.56002C7.08567 5.99003 7.28422 5.34987 7.33011 4.69002C7.28622 4.20886 7.41799 3.72807 7.70108 3.33653C7.98417 2.94498 8.39943 2.66915 8.87011 2.56002C9.50461 2.28636 10.0713 1.87671 10.5301 1.36002C10.7762 0.951103 11.1605 0.643688 11.6135 0.493308C12.0665 0.342928 12.5583 0.359497 13.0001 0.540023C13.7022 0.689941 14.428 0.689941 15.1301 0.540023C15.5469 0.360895 16.0149 0.3403 16.4459 0.482114C16.8768 0.623927 17.2411 0.918369 17.4701 1.31002C17.8748 1.9724 18.5257 2.44715 19.2801 2.63002C19.7372 2.70376 20.1465 2.95564 20.4182 3.3305C20.69 3.70536 20.8022 4.17265 20.7301 4.63002C20.7301 4.85002 20.7301 5.07002 20.7301 5.28002C20.7301 6.05002 21.0701 6.42002 21.9401 6.41002C28.3401 6.41002 34.7501 6.41002 41.1501 6.41002C43.0101 6.41002 43.6101 6.99002 43.6101 8.82002C43.6101 13.96 43.6101 19.0967 43.6101 24.23C43.6101 25.96 42.9901 26.58 41.2601 26.58H22.0001C20.2801 26.58 19.6001 25.94 19.6601 24.23C19.6473 23.4269 19.4005 22.645 18.9501 21.98C17.9501 20.13 17.0101 18.19 16.1301 16.25C15.9422 15.8777 15.6426 15.5734 15.2733 15.3798C14.9039 15.1861 14.4832 15.1128 14.0701 15.17C13.6742 15.1085 13.2689 15.1717 12.9105 15.3509C12.5522 15.5301 12.2584 15.8164 12.0701 16.17C11.1801 18.1 10.2201 20.01 9.26011 21.91C9.05772 22.1854 8.81103 22.4254 8.53011 22.62C8.31362 22.3672 8.13509 22.0843 8.00011 21.78C7.77011 20.83 7.57011 19.86 7.33011 18.82ZM31.6601 13.68C31.0501 14.34 30.5301 14.95 29.9601 15.51C29.7243 15.6727 29.4645 15.7976 29.1901 15.88C29.0427 15.6336 28.941 15.3626 28.8901 15.08C28.8901 12.85 28.8901 10.62 28.8901 8.39002V7.39002H22.2001C21.9409 8.08083 21.6266 8.74966 21.2601 9.39002C20.9308 9.80332 20.7306 10.3045 20.6843 10.8309C20.6381 11.3573 20.7479 11.8856 21.0001 12.35C22.1101 14.63 23.2301 16.9 24.3201 19.19C24.4014 19.5167 24.4318 19.854 24.4101 20.19C24.0963 20.2004 23.7828 20.1633 23.4801 20.08C22.5701 19.69 21.6901 19.25 20.6701 18.76V21.44H42.6401V8.37002C42.6401 7.62002 42.2401 7.37002 41.5301 7.37002H34.4701C34.4701 7.81002 34.4701 8.11002 34.4701 8.42002C34.4701 10.58 34.4701 12.75 34.4701 14.91C34.4209 15.2265 34.3231 15.5334 34.1801 15.82C33.8522 15.7135 33.5421 15.5585 33.2601 15.36C32.6901 14.84 32.2301 14.29 31.6601 13.68ZM20.6601 22.54V23.93C20.6601 25.34 20.7901 25.47 22.1901 25.47C25.9001 25.47 29.6101 25.47 33.3101 25.47H41.5701C42.1601 25.47 42.6401 25.32 42.6701 24.65C42.7001 23.98 42.6701 23.25 42.6701 22.53L20.6601 22.54ZM8.54011 10.66C8.30011 11.46 8.29011 12.17 9.19011 12.35C9.64839 12.4339 10.0821 12.6194 10.4593 12.8928C10.8365 13.1662 11.1478 13.5206 11.3701 13.93C11.49 14.1655 11.6982 14.344 11.9493 14.4265C12.2004 14.5089 12.4739 14.4886 12.7101 14.37C13.1311 14.1728 13.5902 14.0705 14.0551 14.0705C14.52 14.0705 14.9792 14.1728 15.4001 14.37C15.5222 14.4372 15.657 14.4781 15.7958 14.4901C15.9347 14.5021 16.0745 14.4849 16.2063 14.4397C16.3381 14.3945 16.459 14.3223 16.5613 14.2276C16.6635 14.133 16.7449 14.018 16.8001 13.89C17.0152 13.4946 17.3166 13.1526 17.6819 12.8895C18.0471 12.6264 18.4669 12.4488 18.9101 12.37C19.0498 12.3562 19.185 12.313 19.3069 12.2435C19.4288 12.1739 19.5347 12.0795 19.6177 11.9663C19.7007 11.8531 19.759 11.7237 19.7887 11.5865C19.8184 11.4493 19.8189 11.3074 19.7901 11.17C19.7271 10.7239 19.7654 10.2692 19.9021 9.83989C20.0389 9.41055 20.2706 9.01753 20.5801 8.69002C20.6832 8.5963 20.7656 8.48205 20.822 8.35462C20.8784 8.22718 20.9075 8.08937 20.9075 7.95002C20.9075 7.81067 20.8784 7.67286 20.822 7.54543C20.7656 7.41799 20.6832 7.30375 20.5801 7.21002C20.2685 6.88542 20.0339 6.49487 19.8937 6.06731C19.7535 5.63975 19.7112 5.18612 19.7701 4.74002C19.8076 4.59533 19.8121 4.44408 19.7835 4.29739C19.7548 4.1507 19.6936 4.0123 19.6044 3.89238C19.5151 3.77247 19.4002 3.67407 19.2679 3.60444C19.1357 3.53481 18.9895 3.49571 18.8401 3.49002C18.4181 3.40651 18.0198 3.23046 17.674 2.97455C17.3281 2.71863 17.0433 2.38922 16.8401 2.01002C16.7878 1.86986 16.7047 1.74323 16.597 1.63944C16.4892 1.53566 16.3596 1.45738 16.2175 1.41035C16.0755 1.36333 15.9248 1.34878 15.7764 1.36776C15.628 1.38674 15.4857 1.43877 15.3601 1.52002C14.9558 1.7135 14.5133 1.81392 14.0651 1.81392C13.6169 1.81392 13.1744 1.7135 12.7701 1.52002C12.1301 1.23002 11.7701 1.52002 11.2701 2.02002C10.7329 2.63398 10.0671 3.12219 9.32011 3.45002C9.02079 3.54752 8.76133 3.73978 8.58092 3.99776C8.40052 4.25574 8.30897 4.56542 8.32011 4.88002C8.23366 5.65785 7.98132 6.40807 7.58011 7.08002C7.37228 7.3242 7.25815 7.63438 7.25815 7.95502C7.25815 8.27567 7.37228 8.58585 7.58011 8.83002C7.95179 9.41148 8.27297 10.0237 8.54011 10.66ZM7.88011 13L5.08011 18.73C5.93011 18.33 6.57011 18.05 7.19011 17.73C7.81011 17.41 8.12011 17.61 8.26011 18.24C8.40011 18.87 8.56011 19.6 8.77011 20.56C9.67011 18.73 10.4501 17.14 11.2101 15.56C11.2101 15.45 11.1301 15.24 11.0501 15.09C10.7406 14.5028 10.2877 14.0034 9.73348 13.638C9.17929 13.2726 8.54178 13.0532 7.88011 13ZM16.8801 15.43L19.4001 20.56C19.5901 19.68 19.7201 19.08 19.8601 18.48C20.0801 17.48 20.2701 17.4 21.1701 17.82L23.0801 18.71L20.2801 13.01C19.5401 13.0782 18.8315 13.3419 18.227 13.7742C17.6225 14.2065 17.1438 14.7918 16.8401 15.47L16.8801 15.43ZM29.9101 7.40002V14.12C30.3501 13.63 30.6901 13.29 30.9901 12.92C31.4501 12.33 31.8801 12.37 32.3401 12.92C32.6101 13.26 32.9301 13.56 33.3401 14V7.40002H29.9101Z" fill="#D62828"/>
<path d="M14.0799 2.78004C15.4511 2.77075 16.7698 3.30655 17.7459 4.26955C18.722 5.23255 19.2756 6.54387 19.2849 7.91504C19.2942 9.28621 18.7584 10.6049 17.7954 11.581C16.8324 12.5572 15.5211 13.1108 14.1499 13.12C13.4684 13.1361 12.7907 13.0154 12.1567 12.765C11.5227 12.5146 10.9453 12.1397 10.4586 11.6624C9.97201 11.1851 9.586 10.6151 9.32342 9.98602C9.06084 9.35698 8.92703 8.68168 8.92989 8.00004C8.91236 7.31567 9.03306 6.6348 9.28477 5.99816C9.53648 5.36152 9.91404 4.7822 10.3948 4.29487C10.8756 3.80753 11.4498 3.42219 12.083 3.16191C12.7162 2.90162 13.3953 2.77174 14.0799 2.78004ZM13.9999 12.1C15.0842 12.1089 16.1297 11.6971 16.9166 10.9512C17.7036 10.2052 18.1708 9.18324 18.2199 8.10004C18.2391 7.54229 18.1442 6.9865 17.9411 6.46671C17.738 5.94691 17.4309 5.47405 17.0386 5.0771C16.6463 4.68015 16.1772 4.36746 15.6598 4.15819C15.1425 3.94891 14.5878 3.84746 14.0299 3.86004C13.4834 3.84466 12.9396 3.94146 12.432 4.14447C11.9244 4.34747 11.4638 4.65237 11.0787 5.04033C10.6935 5.42829 10.392 5.89109 10.1927 6.40014C9.99339 6.9092 9.90054 7.4537 9.91989 8.00004C9.91988 9.08397 10.3491 10.1238 11.1137 10.8921C11.8783 11.6605 12.916 12.0948 13.9999 12.1Z" fill="#D62828"/>
<path d="M12.3399 9.54001C12.6099 8.92001 12.3399 8.43001 11.7899 7.94001C11.2399 7.45001 11.4299 7.07001 12.0999 6.94001C12.4146 6.94018 12.7218 6.84461 12.9808 6.66599C13.2398 6.48736 13.4383 6.23415 13.5499 5.94001C13.7999 5.31001 14.3299 5.33001 14.5499 5.94001C14.6434 6.25036 14.8356 6.52176 15.0973 6.71305C15.3589 6.90434 15.6759 7.00508 15.9999 7.00001C16.7699 7.11001 16.8799 7.51001 16.2999 8.00001C16.0752 8.17999 15.9075 8.42122 15.817 8.69451C15.7265 8.96781 15.7171 9.26148 15.7899 9.54001C15.9399 10.3 15.5899 10.54 14.9399 10.19C14.6925 10.0162 14.3974 9.92287 14.0949 9.92287C13.7925 9.92287 13.4974 10.0162 13.2499 10.19C12.5799 10.58 12.3099 10.36 12.3399 9.54001ZM13.5699 8.81001H14.5699L14.8899 7.90001L14.1199 7.35001L13.3199 7.90001L13.5699 8.81001Z" fill="#D62828"/>
</g>
<defs>
<clipPath id="clip0_73_423">
<rect width="48" height="48" fill="white"/>
</clipPath>
</defs>
</svg>
