<svg width="48" height="48" viewBox="0 0 48 48" fill="none" xmlns="http://www.w3.org/2000/svg">
<g clip-path="url(#clip0_73_208)">
<path d="M38.8101 41.29C38.8101 41.73 38.8101 42.12 38.8101 42.52C38.8542 43.1329 38.7666 43.7481 38.5529 44.3242C38.3393 44.9003 38.0047 45.4239 37.5717 45.8598C37.1386 46.2957 36.6172 46.6337 36.0425 46.8511C35.4678 47.0685 34.8532 47.1602 34.2401 47.12C29.9601 47.12 25.6901 47.12 21.4101 47.12C19.0901 47.12 16.7701 47.12 14.4101 47.12C11.2101 47.12 9.51005 45.41 9.49005 42.2V41.2C8.05794 41.2729 6.63029 40.9873 5.3364 40.3692C4.04251 39.751 2.92327 38.8199 2.08005 37.66C0.878239 36.0304 0.316053 34.0165 0.500051 32C0.820051 27.55 4.14005 24.59 9.50005 24.09V22.75C8.81005 22.64 8.14005 22.57 7.50005 22.42C6.21104 22.1063 5.01298 21.4962 4.00108 20.6382C2.98918 19.7803 2.19135 18.6982 1.67099 17.4778C1.15062 16.2575 0.922069 14.9326 1.0035 13.6085C1.08492 12.2843 1.47409 10.9974 2.14005 9.85003C2.13814 9.8234 2.13814 9.79666 2.14005 9.77003C2.41005 9.35003 2.69005 8.86003 3.28005 9.24003C3.87005 9.62003 3.54005 10 3.35005 10.44C2.95706 11.2286 2.64867 12.0565 2.43005 12.91C2.22143 14.0858 2.31106 15.2952 2.69074 16.4274C3.07041 17.5596 3.728 18.5785 4.60331 19.3909C5.47863 20.2032 6.54371 20.783 7.70107 21.0772C8.85844 21.3715 10.0711 21.3707 11.2281 21.075C12.3851 20.7794 13.4495 20.1982 14.3238 19.3848C15.1981 18.5714 15.8544 17.5516 16.2326 16.4189C16.6109 15.2862 16.699 14.0768 16.4889 12.9012C16.2788 11.7257 15.7772 10.6216 15.0301 9.69003C14.0252 8.44491 12.6328 7.57165 11.0744 7.20923C9.51602 6.84681 7.88117 7.01605 6.43005 7.69003C6.24005 7.78003 6.00005 8.00003 5.76005 8.00003C5.3854 7.99436 5.01277 7.944 4.65005 7.85003C4.81005 7.51003 4.87005 6.97003 5.13005 6.85003C6.13076 6.42304 7.15589 6.05573 8.20005 5.75003C8.61158 5.6586 9.02944 5.59843 9.45005 5.57003C9.50221 4.98209 9.58903 4.39774 9.71005 3.82003C9.9529 2.909 10.4932 2.10522 11.245 1.53633C11.9969 0.967435 12.9173 0.66605 13.8601 0.680031C20.7334 0.680031 27.6034 0.680031 34.4701 0.680031C35.042 0.666433 35.6108 0.768729 36.1422 0.980759C36.6736 1.19279 37.1565 1.51017 37.562 1.91378C37.9675 2.3174 38.2871 2.7989 38.5016 3.3293C38.7161 3.8597 38.821 4.42801 38.8101 5.00003C38.8101 5.18003 38.8101 5.36003 38.8101 5.63003C40.1872 5.65019 41.5399 5.99703 42.7568 6.64201C43.9738 7.287 45.0202 8.21169 45.8101 9.34003C46.9371 10.9237 47.4748 12.8517 47.3301 14.79C47.0801 19.09 44.0401 21.97 38.84 22.79V24.12C40.2591 24.1353 41.6531 24.4967 42.9008 25.1728C44.1486 25.849 45.2124 26.8195 46 28C47.0493 29.5625 47.5391 31.4339 47.39 33.31C47.1 37.53 44.3601 40.11 38.8101 41.29ZM16.7001 4.79003C15.9401 4.79003 15.1501 4.79003 14.3601 4.79003C14.1201 4.79003 13.7401 5.07003 13.7101 5.27003C13.6001 5.96003 13.5001 6.60003 14.3101 7.15003C15.3643 7.83729 16.2476 8.75636 16.8925 9.83709C17.5374 10.9178 17.9268 12.1316 18.031 13.3858C18.1352 14.6399 17.9514 15.9014 17.4937 17.0737C17.036 18.246 16.3165 19.2982 15.3901 20.15C14.7252 20.6613 14.2114 21.3433 13.9032 22.1233C13.5951 22.9034 13.5041 23.7524 13.6401 24.58C13.6451 24.6098 13.6451 24.6402 13.6401 24.67C13.601 24.9239 13.6393 25.1837 13.7499 25.4155C13.8604 25.6474 14.0382 25.8406 14.2601 25.97C15.2585 26.7426 16.0707 27.7295 16.6367 28.858C17.2026 29.9864 17.5079 31.2276 17.53 32.4898C17.5521 33.7521 17.2904 35.0032 16.7642 36.1507C16.2381 37.2983 15.4609 38.313 14.4901 39.12C14.1754 39.3211 13.9269 39.6105 13.7757 39.9519C13.6246 40.2934 13.5774 40.6719 13.6401 41.04C13.6501 41.1932 13.6501 41.3469 13.6401 41.5C13.6401 42.99 13.6401 43 15.1001 43H32.87C34.75 43 34.72 43 34.76 41.08C34.7928 40.7873 34.7382 40.4915 34.6029 40.2298C34.4676 39.9682 34.2578 39.7525 34 39.61C32.4834 38.6049 31.3547 37.1129 30.8001 35.38C30.2735 33.9056 30.1969 32.308 30.5801 30.79C30.6701 30.48 31.1201 30.27 31.4001 30.02C31.6039 30.3305 31.7653 30.6668 31.8801 31.02C31.8883 31.3574 31.8479 31.6942 31.7601 32.02C31.6278 33.5182 31.9719 35.0198 32.7435 36.3108C33.515 37.6018 34.6744 38.6162 36.0565 39.2093C37.4386 39.8024 38.9726 39.944 40.4399 39.6138C41.9072 39.2837 43.2327 38.4986 44.2275 37.3706C45.2222 36.2426 45.8354 34.8293 45.9795 33.3323C46.1236 31.8353 45.7914 30.3309 45.0301 29.0339C44.2688 27.7368 43.1174 26.7133 41.7401 26.1092C40.3628 25.5052 38.8299 25.3515 37.3601 25.67C35.7694 26.0322 34.3384 26.8986 33.28 28.14C33.09 28.36 32.5701 28.29 32.2001 28.35C32.1646 27.9981 32.1917 27.6426 32.2801 27.3C32.4703 26.9131 32.7691 26.5899 33.14 26.37C34.8 25.59 34.93 24.2 34.75 22.65C34.7351 22.5573 34.7351 22.4628 34.75 22.37C34.85 21.82 34.5801 21.51 34.1301 21.2C32.9666 20.4307 32.012 19.385 31.3515 18.1564C30.6911 16.9279 30.3454 15.5548 30.3454 14.16C30.3454 12.7652 30.6911 11.3921 31.3515 10.1636C32.012 8.93508 32.9666 7.88938 34.1301 7.12003C34.9201 6.58003 34.8 5.95003 34.67 5.31003C34.62 5.08003 34.05 4.78003 33.76 4.82003C33 4.91003 31.9301 4.28003 31.5301 5.17003C31.3701 5.66076 31.0464 6.08159 30.6131 6.36198C30.1798 6.64236 29.6632 6.76525 29.1501 6.71003C25.9401 6.71003 22.7401 6.71003 19.5301 6.71003C17.6801 6.70003 17.4001 6.51003 16.7001 4.79003ZM38.89 21.32C40.3025 21.3161 41.6821 20.8939 42.8548 20.1067C44.0276 19.3195 44.9409 18.2027 45.4796 16.897C46.0183 15.5913 46.1582 14.1553 45.8817 12.7703C45.6051 11.3852 44.9246 10.113 43.9258 9.11425C42.9271 8.11551 41.6549 7.43494 40.2698 7.15842C38.8847 6.8819 37.4488 7.02181 36.1431 7.56049C34.8374 8.09918 33.7205 9.01251 32.9334 10.1853C32.1462 11.358 31.724 12.7376 31.7201 14.15C31.7253 16.05 32.4824 17.8707 33.8259 19.2142C35.1694 20.5576 36.9901 21.3148 38.89 21.32ZM9.00005 25.52C7.58635 25.5161 6.20321 25.9313 5.02543 26.7132C3.84765 27.4952 2.92811 28.6087 2.383 29.9131C1.8379 31.2175 1.69171 32.6542 1.96291 34.0416C2.23411 35.4291 2.91052 36.705 3.90667 37.7081C4.90281 38.7112 6.17397 39.3966 7.55949 39.6775C8.94501 39.9583 10.3827 39.8222 11.6909 39.2862C12.999 38.7502 14.119 37.8385 14.9091 36.6662C15.6992 35.4939 16.1241 34.1137 16.1301 32.7C16.1366 31.7595 15.9571 30.827 15.6017 29.9561C15.2464 29.0853 14.7222 28.2934 14.0595 27.626C13.3967 26.9586 12.6085 26.429 11.7402 26.0675C10.8719 25.7061 9.9406 25.52 9.00005 25.52ZM12.1801 6.00003C12.4001 3.94003 13.0001 3.39003 15.0001 3.39003H16.4601C16.6597 3.35457 16.8645 3.36024 17.0619 3.40668C17.2593 3.45313 17.4451 3.53937 17.608 3.66014C17.7709 3.7809 17.9074 3.93365 18.0092 4.10902C18.111 4.28439 18.176 4.47869 18.2001 4.68003C18.2901 5.24003 18.5901 5.37003 19.0801 5.37003H29.2401C29.7601 5.37003 30.0901 5.24003 30.2401 4.64003C30.3175 4.247 30.5297 3.89332 30.8401 3.64003C31.5501 3.08003 34.7601 3.23003 35.4001 3.87003C35.6992 4.24091 35.9326 4.66031 36.09 5.11003C36.1685 5.39683 36.2088 5.6927 36.21 5.99003L37.4501 5.69003C37.6701 3.40003 36.45 2.04003 34.26 2.04003H14.2601C11.9801 2.04003 10.7801 3.43003 11.0901 5.71003L12.1801 6.00003ZM10.9201 41C10.9391 41.3331 10.9391 41.667 10.9201 42C10.6801 44.41 12.1901 45.78 14.6101 45.74C21.0801 45.64 27.5501 45.74 34.0201 45.74C36.3801 45.74 37.43 44.63 37.51 42.26C37.51 41.26 37.2401 40.79 36.1101 40.87C36.1101 41.34 36.1101 41.82 36.1101 42.29C36.1245 42.5705 36.0798 42.8508 35.9788 43.1129C35.8777 43.3749 35.7226 43.6127 35.5236 43.8108C35.3245 44.0089 35.086 44.1628 34.8235 44.2626C34.561 44.3624 34.2804 44.4058 34 44.39C27.5 44.39 20.9967 44.39 14.4901 44.39C14.1984 44.409 13.906 44.3657 13.6324 44.263C13.3588 44.1603 13.1101 44.0005 12.903 43.7943C12.6959 43.5882 12.535 43.3402 12.431 43.0671C12.327 42.7939 12.2824 42.5018 12.3001 42.21C12.3001 41.69 12.3001 41.21 12.3001 40.57L10.9201 41ZM36.1 24.54L37.42 24.22C37.56 22.46 37.54 22.44 36.1 22.37V24.54ZM12.2101 22.3C10.8401 22.57 10.7301 22.7 10.9301 23.96C11.0501 24.76 11.7101 24.49 12.2101 24.62V22.3Z" fill="#D62828"/>
<path d="M14.24 14.1901C14.24 15.0401 14.24 15.8901 14.24 16.7501C14.2645 17.0335 14.2282 17.3189 14.1335 17.5872C14.0389 17.8555 13.8881 18.1005 13.6913 18.3059C13.4944 18.5113 13.256 18.6723 12.9919 18.7782C12.7279 18.8841 12.4442 18.9325 12.16 18.9201C10.39 18.9201 8.62002 18.9201 6.85002 18.9201C6.56525 18.9379 6.27996 18.8946 6.01331 18.7931C5.74665 18.6916 5.5048 18.5342 5.30399 18.3315C5.10319 18.1288 4.94808 17.8855 4.84908 17.6179C4.75008 17.3503 4.70948 17.0646 4.73002 16.7801C4.73002 15.0401 4.73002 13.3001 4.73002 11.5601C4.70665 11.2683 4.7476 10.975 4.84998 10.7008C4.95235 10.4266 5.11366 10.1782 5.32251 9.9732C5.53137 9.76817 5.78268 9.61146 6.0587 9.51416C6.33473 9.41685 6.62875 9.38132 6.92002 9.41006C8.65002 9.41006 10.39 9.41006 12.13 9.41006C12.4131 9.39383 12.6963 9.43797 12.961 9.53955C13.2257 9.64113 13.4658 9.79783 13.6653 9.99925C13.8649 10.2007 14.0193 10.4422 14.1184 10.7079C14.2174 10.9735 14.2589 11.2572 14.24 11.5401C14.26 12.4201 14.24 13.3001 14.24 14.1901ZM9.47002 17.5401C10.29 17.5401 11.11 17.5401 11.93 17.5401C12.57 17.5401 12.93 17.2801 12.93 16.6301V11.6901C12.9538 11.5559 12.9437 11.418 12.9008 11.2887C12.8579 11.1595 12.7834 11.0429 12.6842 10.9497C12.585 10.8564 12.464 10.7893 12.3324 10.7544C12.2007 10.7196 12.0624 10.7181 11.93 10.7501H7.00002C6.41002 10.7501 6.10002 11.0101 6.10002 11.6301C6.10002 13.3101 6.10002 14.9801 6.10002 16.6301C6.10002 17.2401 6.38002 17.5201 6.99002 17.5101L9.47002 17.5401Z" fill="#D62828"/>
<path d="M30.35 23.91C30.3423 24.9807 30.0556 26.0309 29.5182 26.9571C28.9809 27.8832 28.2114 28.6532 27.2857 29.1913C26.36 29.7294 25.31 30.0169 24.2393 30.0254C23.1686 30.0339 22.1142 29.7633 21.18 29.24C20.9184 29.0723 20.6214 28.9677 20.3124 28.9348C20.0035 28.9018 19.691 28.9413 19.4 29.05C19.1612 29.1371 18.9066 29.1723 18.6531 29.1534C18.3997 29.1344 18.1532 29.0617 17.93 28.94C17.66 28.67 17.7 27.94 17.8 27.47C18.0917 26.6811 18.211 25.8389 18.15 25C17.9076 23.8767 18.0045 22.7066 18.4282 21.6384C18.852 20.5701 19.5835 19.6518 20.53 19C21.4235 18.2932 22.503 17.8612 23.6374 17.7565C24.7718 17.6517 25.9122 17.8788 26.92 18.41C27.9508 18.9118 28.8193 19.694 29.426 20.6668C30.0326 21.6395 30.3529 22.7636 30.35 23.91ZM19.24 27.63C19.6402 27.4408 20.087 27.3721 20.5256 27.4325C20.9642 27.4929 21.3757 27.6797 21.71 27.97C22.6218 28.5416 23.7022 28.783 24.7706 28.6537C25.839 28.5245 26.8307 28.0325 27.58 27.26C28.3363 26.4958 28.8135 25.4994 28.9348 24.4311C29.0561 23.3628 28.8145 22.2848 28.2488 21.3704C27.6832 20.4561 26.8263 19.7587 25.8162 19.3904C24.8061 19.0221 23.7014 19.0044 22.68 19.34C21.6683 19.6672 20.7964 20.3258 20.2049 21.2093C19.6134 22.0929 19.3369 23.15 19.42 24.21C19.56 25.35 19.86 26.47 19.24 27.63Z" fill="#D62828"/>
<path d="M36.2501 32.75C36.2501 31.89 36.2501 31.04 36.2501 30.19C36.2501 29.19 36.9601 28.77 37.8601 29.28C39.3534 30.1066 40.8267 30.96 42.2801 31.84C42.4465 31.9229 42.5865 32.0506 42.6843 32.2087C42.7822 32.3668 42.834 32.549 42.834 32.735C42.834 32.9209 42.7822 33.1032 42.6843 33.2613C42.5865 33.4193 42.4465 33.547 42.2801 33.63C40.8001 34.53 39.3001 35.3966 37.7801 36.23C36.9401 36.69 36.2701 36.28 36.2301 35.3C36.1901 34.32 36.2501 33.6 36.2501 32.75ZM37.6801 34.75L41.1301 32.75L37.6801 30.75V34.75Z" fill="#D62828"/>
<path d="M37.59 14.79C36.91 14.42 35.84 14.99 35.87 13.92C35.9 12.85 36.94 13.45 37.59 13.12C37.59 12.58 37.59 11.98 37.59 11.38C37.5677 11.0872 37.6102 10.7931 37.7144 10.5186C37.8186 10.244 37.982 9.99582 38.193 9.79155C38.4039 9.58728 38.6573 9.43196 38.935 9.33664C39.2127 9.24132 39.5081 9.20833 39.8 9.24C40.2513 9.17976 40.7087 9.17976 41.16 9.24C41.44 9.31 41.65 9.65 41.9 9.87C41.67 10.1 41.47 10.45 41.19 10.52C40.7384 10.5757 40.2816 10.5757 39.83 10.52C39.24 10.52 38.93 10.8 38.95 11.42C38.97 12.04 38.95 12.51 38.95 13.04C39.53 13.43 40.72 12.74 40.66 13.93C40.61 14.87 39.66 14.37 38.95 14.66V18C39.0066 18.2704 39.0066 18.5496 38.95 18.82C38.7497 19.1078 38.5146 19.3698 38.25 19.6C38.04 19.35 37.66 19.11 37.63 18.84C37.56 17.84 37.63 16.84 37.63 15.92L37.59 14.79Z" fill="#D62828"/>
<path d="M5.17994 34.18C4.65497 33.6603 4.27673 33.0111 4.08355 32.2981C3.89037 31.5851 3.88913 30.8337 4.07994 30.12C4.34994 28.9 4.98994 28.71 5.93994 29.49C6.49276 29.8929 7.07059 30.2603 7.66994 30.59C8.03994 29.52 8.52995 28.72 9.55995 28.48C9.88423 28.3822 10.2275 28.365 10.5599 28.43C11.3743 28.7981 12.2699 28.9496 13.1599 28.87C13.3699 28.82 14.0799 29.65 13.9999 29.87C13.4449 31.4948 12.7766 33.0787 11.9999 34.61C11.6684 35.1229 11.2374 35.5642 10.7324 35.9077C10.2275 36.2512 9.65877 36.49 9.05995 36.61C7.83613 37.0432 6.49684 37.0183 5.28994 36.54C5.06981 36.4051 4.87984 36.2262 4.73188 36.0146C4.58392 35.8029 4.48114 35.5631 4.42994 35.31C4.33994 35.06 4.83994 34.66 5.17994 34.18ZM12.3699 30.47C11.8633 30.3589 11.3679 30.2016 10.8899 30C9.98994 29.5 9.19994 29.82 9.15994 30.87C9.10994 31.77 8.65994 32.01 7.91994 31.87C7.17994 31.73 6.21994 31.37 5.36994 31.11C5.31643 31.6561 5.43771 32.205 5.71628 32.6777C5.99485 33.1503 6.41633 33.5223 6.91994 33.74C7.80994 34.28 7.81994 34.64 6.97994 35.27C6.84293 35.3751 6.71267 35.4886 6.58994 35.61C8.58994 35.61 10.1699 35.17 11.0899 33.49C11.5686 32.5062 11.9958 31.4982 12.3699 30.47Z" fill="#D62828"/>
<path d="M25.1601 3.64001C24.7201 3.99001 24.4601 4.33001 24.2601 4.30001C24.1075 4.26066 23.9663 4.1858 23.8482 4.08153C23.73 3.97725 23.6381 3.84653 23.5801 3.70001C23.5801 3.54001 23.9201 3.09001 24.1301 3.07001C24.3401 3.05001 24.6701 3.36001 25.1601 3.64001Z" fill="#D62828"/>
<path d="M11.51 14.18C11.51 14.7105 11.2993 15.2192 10.9242 15.5943C10.5492 15.9693 10.0404 16.18 9.51001 16.18C8.97413 16.1644 8.46545 15.9405 8.092 15.5559C7.71856 15.1712 7.50978 14.6561 7.51001 14.12C7.50989 13.8523 7.56354 13.5872 7.66778 13.3406C7.77202 13.0939 7.92473 12.8707 8.11685 12.6842C8.30897 12.4977 8.53659 12.3516 8.7862 12.2547C9.03582 12.1578 9.30236 12.112 9.57001 12.12C9.83269 12.1278 10.0913 12.1873 10.331 12.295C10.5706 12.4028 10.7868 12.5567 10.9669 12.748C11.1471 12.9393 11.2878 13.1643 11.381 13.41C11.4742 13.6557 11.518 13.9174 11.51 14.18ZM9.51001 15.07C9.81001 14.65 10.15 14.37 10.11 14.18C10.07 13.99 9.70001 13.72 9.47001 13.49C9.26001 13.73 8.93001 13.95 8.88001 14.22C8.83001 14.49 9.21001 14.68 9.52001 15.07H9.51001Z" fill="#D62828"/>
<path d="M25.24 25.89C22.9 25.84 21.41 23.89 22.15 22.27C22.29 21.95 22.83 21.55 23.15 21.6C23.72 21.69 23.7 22.2 23.46 22.69C23.1 23.42 23.54 23.78 24.12 24.13C24.7 24.48 25.17 24.63 25.72 24.03C25.8548 23.9116 26.0155 23.8265 26.1892 23.7813C26.3628 23.7362 26.5446 23.7323 26.72 23.77C27.23 24.09 27.02 24.61 26.65 24.92C26.2008 25.2725 25.7299 25.5965 25.24 25.89Z" fill="#D62828"/>
</g>
<defs>
<clipPath id="clip0_73_208">
<rect width="48" height="48" fill="white"/>
</clipPath>
</defs>
</svg>
