<svg width="48" height="48" viewBox="0 0 48 48" fill="none" xmlns="http://www.w3.org/2000/svg">
<path d="M42.25 43.8101C42.25 42.2701 42.25 41.0201 42.25 39.8101C42.2099 39.3647 42.2966 38.9171 42.5001 38.519C42.7036 38.1209 43.0156 37.7884 43.4 37.5601C44.3135 36.9698 45.0624 36.1575 45.5765 35.1991C46.0907 34.2407 46.3534 33.1676 46.34 32.0801C46.34 29.4501 46.34 26.8301 46.34 24.2001C46.3426 22.4309 45.6445 20.7328 44.3982 19.4771C43.1519 18.2215 41.4591 17.5106 39.69 17.5001C33.1433 17.4401 26.5933 17.4401 20.04 17.5001C19.1554 17.5066 18.2808 17.6879 17.4666 18.0337C16.6524 18.3795 15.9146 18.8828 15.2956 19.5148C14.6766 20.1468 14.1887 20.8949 13.86 21.7162C13.5312 22.5374 13.3681 23.4155 13.38 24.3001C13.32 26.8601 13.38 29.4301 13.38 31.9901C13.38 32.8101 13.73 33.6101 13.82 34.4301C13.7782 34.8107 13.6663 35.1802 13.49 35.5201C13.16 35.3201 12.62 35.1901 12.55 34.9201C12.2666 33.9104 12.0824 32.8755 12 31.8301C11.91 30.6701 12 29.5001 12 28.3601C11.6835 28.2351 11.3355 28.2143 11.0064 28.3006C10.6773 28.3869 10.3843 28.5759 10.17 28.8401C9.09997 29.9401 7.99997 31.0001 6.92997 32.0601C6.75117 32.3143 6.49393 32.5028 6.19769 32.5967C5.90144 32.6906 5.58257 32.6848 5.28997 32.5801C5.00375 32.4546 4.76814 32.2364 4.62117 31.9606C4.47421 31.6848 4.42447 31.3676 4.47997 31.0601C4.47997 30.7501 4.47997 30.4301 4.47997 30.1301C4.66041 29.3009 4.59148 28.4368 4.28185 27.6468C3.97222 26.8567 3.43574 26.1759 2.73997 25.6901C1.93016 25.0086 1.29061 24.1475 0.87222 23.1753C0.45383 22.2031 0.268153 21.1467 0.329968 20.0901C0.329968 17.4601 0.329968 14.8401 0.329968 12.2101C0.353154 10.1822 1.12609 8.2346 2.49982 6.7427C3.87355 5.25079 5.75086 4.32013 7.76997 4.13006C8.19997 4.13006 8.62997 4.06006 9.05997 4.06006C15.15 4.06006 21.23 4.06006 27.32 4.06006C28.4257 4.12524 29.5234 4.28923 30.6 4.55006C31.1 4.65006 31.51 5.03006 31.21 5.55006C31.08 5.79006 30.51 5.91006 30.16 5.88006C29.16 5.80006 28.16 5.50006 27.16 5.49006C21.16 5.49006 15.16 5.49006 9.08997 5.49006C4.63997 5.49006 1.77997 8.35006 1.76997 12.7801C1.76997 15.1001 1.76997 17.4101 1.76997 19.7801C1.72053 20.9712 1.98789 22.1541 2.54478 23.2081C3.10167 24.2622 3.92817 25.1497 4.93997 25.7801C5.26359 25.9659 5.52875 26.2386 5.70547 26.5673C5.88219 26.896 5.96342 27.2676 5.93997 27.6401C5.93997 28.7101 5.93997 29.7801 5.93997 30.8601L6.16997 31.0101C6.98997 30.1501 7.81997 29.3001 8.61997 28.4301C9.41997 27.5601 10.41 26.5101 12 26.8701C12 25.9401 12 25.1501 12 24.3501C11.9813 23.256 12.1815 22.1692 12.5889 21.1536C12.9962 20.138 13.6025 19.214 14.3721 18.4361C15.1416 17.6582 16.0589 17.0419 17.07 16.6236C18.0812 16.2052 19.1657 15.9932 20.26 16.0001C24.68 16.0001 29.1 16.0001 33.51 16.0001H34.59C34.59 13.0501 35.09 10.1001 32.87 7.67006C32.69 7.48006 32.87 6.98006 32.87 6.67006C33.25 6.74006 33.77 6.67006 33.98 6.90006C35.3549 8.39575 36.1093 10.3585 36.09 12.3901C36.09 13.5601 36.09 14.7301 36.09 16.0401H39C44.34 16.0401 47.82 19.5101 47.82 24.8401C47.82 27.1601 47.82 29.4801 47.82 31.8401C47.846 33.1906 47.5417 34.527 46.9334 35.733C46.3252 36.9391 45.4314 37.9782 44.33 38.7601C44.0037 39.0425 43.7994 39.4403 43.76 39.8701C43.69 41.2201 43.76 42.5901 43.7 43.9401C43.6796 44.2119 43.599 44.4759 43.4641 44.7128C43.3292 44.9498 43.1434 45.1538 42.92 45.3101C42.6498 45.3651 42.3706 45.3577 42.1037 45.2883C41.8368 45.219 41.5892 45.0896 41.38 44.9101C39.95 43.6001 38.63 42.1601 37.21 40.8301C36.8378 40.4936 36.361 40.2958 35.86 40.2701C30.7333 40.2301 25.6033 40.2301 20.47 40.2701C18.476 40.303 16.5359 39.622 15 38.3501C14.59 38.0201 14.09 37.6501 14.56 37.0701C15.03 36.4901 15.49 36.9101 15.9 37.2501C17.2256 38.2912 18.8752 38.8329 20.56 38.7801C25.68 38.7801 30.81 38.7801 35.94 38.7801C36.3534 38.7605 36.7661 38.8329 37.1482 38.992C37.5304 39.1511 37.8725 39.3929 38.15 39.7001C39.43 41.0001 40.75 42.3001 42.25 43.8101Z" fill="#D62828"/>
<path d="M27.9999 32.87L28.8699 31.92C26.8699 30.05 26.9299 26.32 28.9399 24.92C28.7406 23.8428 28.1861 22.8635 27.365 22.1384C26.5439 21.4134 25.5035 20.9844 24.4099 20.92C23.2926 20.8424 22.1816 21.1423 21.255 21.7715C20.3285 22.4007 19.64 23.3228 19.2999 24.39C19.289 24.5379 19.3112 24.6865 19.3648 24.8249C19.4184 24.9633 19.5021 25.088 19.6099 25.19C19.9457 25.4397 20.2171 25.766 20.4014 26.1416C20.5858 26.5173 20.6778 26.9316 20.6699 27.35C20.6699 28.12 20.6699 28.9 20.6699 29.67C20.6699 30.2879 20.4245 30.8806 19.9875 31.3175C19.5505 31.7545 18.9579 32 18.3399 32C18.0259 32.0057 17.7141 31.9471 17.4236 31.8278C17.1331 31.7084 16.8702 31.5308 16.6509 31.306C16.4317 31.0811 16.2608 30.8137 16.1489 30.5203C16.0369 30.2269 15.9862 29.9137 15.9999 29.6C15.9999 28.79 15.9999 27.99 15.9999 27.19C15.9789 26.7451 16.0842 26.3034 16.3037 25.9159C16.5231 25.5283 16.8477 25.2108 17.2399 25C17.5064 24.8249 17.7097 24.5691 17.8199 24.27C18.1751 22.8738 18.9853 21.6359 20.1226 20.7517C21.2599 19.8675 22.6594 19.3875 24.0999 19.3875C25.5405 19.3875 26.94 19.8675 28.0773 20.7517C29.2146 21.6359 30.0248 22.8738 30.3799 24.27C30.4941 24.5727 30.705 24.8293 30.9799 25C31.3632 25.2221 31.679 25.544 31.8939 25.9314C32.1087 26.3188 32.2145 26.7572 32.1999 27.2C32.1999 27.85 32.1999 28.5 32.1999 29.15C32.2847 29.7038 32.1809 30.2701 31.9052 30.7579C31.6296 31.2457 31.1981 31.6268 30.6799 31.84C30.4792 31.972 30.317 32.1549 30.2099 32.37C30.0264 32.6893 29.8227 32.9966 29.5999 33.29C28.9412 34.0439 28.2222 34.7428 27.4499 35.38C26.947 35.7237 26.3584 35.921 25.7499 35.95C25.2965 35.9869 24.8432 35.8778 24.4563 35.6384C24.0694 35.3991 23.7693 35.0422 23.5999 34.62C23.4626 34.3023 23.4273 33.9498 23.4989 33.6112C23.5706 33.2727 23.7456 32.9647 23.9999 32.73C24.3361 32.3617 24.7762 32.1042 25.2619 31.9917C25.7477 31.8792 26.2561 31.9169 26.7199 32.1C27.1697 32.3161 27.5982 32.5739 27.9999 32.87ZM19.2099 28.42C19.2803 27.966 19.2803 27.5039 19.2099 27.05C19.0899 26.72 18.6899 26.29 18.3999 26.28C18.2067 26.3069 18.0239 26.3837 17.8696 26.503C17.7152 26.6223 17.5947 26.7798 17.5199 26.96C17.4049 27.9031 17.4049 28.8568 17.5199 29.8C17.5947 29.9801 17.7152 30.1376 17.8696 30.2569C18.0239 30.3762 18.2067 30.4531 18.3999 30.48C18.6899 30.48 19.0799 30.03 19.2099 29.7C19.2871 29.2773 19.2938 28.8448 19.2299 28.42H19.2099ZM30.7199 28.42C30.7854 27.9656 30.7854 27.5043 30.7199 27.05C30.6099 26.72 30.2199 26.28 29.9299 26.26C29.7386 26.284 29.5567 26.3575 29.4024 26.4733C29.2481 26.589 29.1266 26.743 29.0499 26.92C28.9399 27.8634 28.9399 28.8165 29.0499 29.76C29.121 29.9407 29.2375 30.1001 29.3882 30.2227C29.5388 30.3453 29.7185 30.427 29.9099 30.46C30.1999 30.46 30.5999 30.02 30.7299 29.7C30.8015 29.2833 30.8049 28.8577 30.7399 28.44L30.7199 28.42ZM25.8499 34.75L26.7299 33.91C26.4099 33.72 26.0899 33.39 25.7299 33.4C25.3699 33.41 25.1499 33.77 24.8599 33.97L25.8499 34.75Z" fill="#D62828"/>
<path d="M36.8101 23.45C35.9475 23.5001 35.0827 23.5001 34.2201 23.45C33.9001 23.45 33.6301 23 33.3301 22.75C33.6101 22.52 33.8801 22.09 34.1601 22.08C35.9501 22.02 37.7501 22.02 39.5401 22.08C39.8201 22.08 40.0901 22.52 40.3601 22.75C40.0701 22.99 39.8001 23.42 39.4901 23.45C38.5974 23.5001 37.7027 23.5001 36.8101 23.45Z" fill="#D62828"/>
<path d="M36.2001 26.62C35.5343 26.6687 34.8659 26.6687 34.2001 26.62C33.8901 26.57 33.6401 26.19 33.3601 25.96C33.6301 25.72 33.8801 25.29 34.1601 25.27C35.5458 25.195 36.9345 25.195 38.3201 25.27C38.6001 25.27 38.8401 25.72 39.1001 25.97C38.8201 26.19 38.5701 26.56 38.2601 26.61C37.5745 26.6598 36.8862 26.6632 36.2001 26.62Z" fill="#D62828"/>
<path d="M13.4701 14.54C13.1801 14.14 12.7301 13.77 12.6601 13.34C12.5701 12.75 13.0001 12.34 13.6601 12.34C14.3201 12.34 14.7601 12.76 14.6601 13.34C14.6601 13.77 14.1501 14.14 13.8701 14.54H13.4701Z" fill="#D62828"/>
<path d="M10.1399 14.39C9.95989 14.11 9.51989 13.71 9.47989 13.27C9.42989 12.66 9.90989 12.27 10.5799 12.32C10.7094 12.3183 10.8378 12.3435 10.9572 12.3938C11.0765 12.4441 11.1841 12.5186 11.2733 12.6125C11.3625 12.7064 11.4313 12.8177 11.4755 12.9394C11.5197 13.0612 11.5382 13.1907 11.5299 13.32C11.5099 14 11.1199 14.37 10.1399 14.39Z" fill="#D62828"/>
<path d="M8.33008 13.39C8.33078 13.5301 8.302 13.6689 8.24562 13.7972C8.18923 13.9256 8.10649 14.0406 8.00276 14.1349C7.89904 14.2292 7.77665 14.3006 7.64353 14.3446C7.51042 14.3885 7.36955 14.404 7.23008 14.39C7.09647 14.3988 6.96251 14.379 6.83718 14.3319C6.71185 14.2847 6.59803 14.2114 6.50335 14.1167C6.40866 14.022 6.3353 13.9082 6.28818 13.7828C6.24105 13.6575 6.22124 13.5236 6.23008 13.39C6.22124 13.2563 6.24105 13.1224 6.28818 12.9971C6.3353 12.8717 6.40866 12.7579 6.50335 12.6632C6.59803 12.5685 6.71185 12.4952 6.83718 12.448C6.96251 12.4009 7.09647 12.3811 7.23008 12.3899C8.00008 12.3199 8.30008 12.73 8.33008 13.39Z" fill="#D62828"/>
</svg>
