<svg width="48" height="48" viewBox="0 0 48 48" fill="none" xmlns="http://www.w3.org/2000/svg">
<path d="M21.37 0.830006C26.19 0.830006 31 0.830006 35.82 0.830006C39.76 0.830006 42.16 3.23001 42.17 7.16001C42.17 12.8667 42.17 18.5767 42.17 24.29C42.1359 24.5705 42.1935 24.8545 42.3341 25.0996C42.4746 25.3447 42.6907 25.5378 42.95 25.65C44.5749 26.4465 45.9129 27.7272 46.7797 29.3158C47.6465 30.9043 47.9995 32.7225 47.79 34.52C47.7136 36.2992 47.0881 38.011 45.9993 39.4202C44.9106 40.8295 43.4122 41.8669 41.71 42.39C40.0238 43.0463 38.1755 43.1631 36.4202 42.7242C34.6648 42.2854 33.0889 41.3126 31.91 39.94C31.6949 39.6902 31.4251 39.4935 31.1216 39.3651C30.818 39.2368 30.4889 39.1803 30.16 39.2C22.42 39.2 14.67 39.2 6.91996 39.2C2.77996 39.2 0.429962 36.85 0.429962 32.73C0.429962 24.19 0.429962 15.6433 0.429962 7.09001C0.419962 3.29001 2.84996 0.830006 6.64996 0.830006C11.56 0.820006 16.47 0.830006 21.37 0.830006ZM25.71 21.37C26.71 22.1 27.71 22.71 28.58 23.43C28.82 23.63 28.79 24.16 28.88 24.53C28.5034 24.5928 28.1214 24.6163 27.74 24.6C27.53 24.6 27.33 24.34 27.13 24.2L13.49 14.64C13.22 14.45 12.94 14.27 12.63 14.07C9.22996 16.94 5.86996 19.8 2.48996 22.63C2.28107 22.7879 2.11621 22.9968 2.01115 23.2367C1.9061 23.4766 1.86437 23.7394 1.88996 24C1.88996 27 1.88996 29.93 1.88996 32.89C1.88996 36.03 3.60996 37.75 6.75996 37.76H29.26C29.58 37.76 29.89 37.76 30.26 37.69C29.5627 36.118 29.3109 34.3845 29.5323 32.6791C29.7537 30.9737 30.4397 29.362 31.5152 28.0201C32.5908 26.6783 34.0145 25.6579 35.6309 25.0706C37.2472 24.4833 38.9939 24.3516 40.68 24.69C40.68 22.86 40.68 21.05 40.68 19.24C40.6723 19.0565 40.5976 18.8821 40.47 18.75C38.94 17.2 37.39 15.66 35.83 14.1L25.71 21.37ZM1.89996 21.14C2.27996 20.84 2.51996 20.66 2.73996 20.47C5.73996 17.96 8.73996 15.47 11.64 12.93C11.7587 12.7915 11.9048 12.6791 12.0691 12.5999C12.2334 12.5207 12.4123 12.4764 12.5946 12.4699C12.7769 12.4633 12.9586 12.4946 13.1282 12.5617C13.2978 12.6289 13.4516 12.7304 13.58 12.86C16.79 15.15 20.06 17.37 23.25 19.69C23.3981 19.8424 23.5754 19.9636 23.7712 20.0463C23.967 20.129 24.1774 20.1716 24.39 20.1716C24.6025 20.1716 24.8129 20.129 25.0087 20.0463C25.2046 19.9636 25.3818 19.8424 25.53 19.69C28.65 17.32 31.87 15.09 35.03 12.78C35.1443 12.6559 35.2853 12.5593 35.4422 12.4974C35.5992 12.4354 35.7681 12.4098 35.9364 12.4223C36.1046 12.4348 36.2679 12.4851 36.414 12.5696C36.5601 12.654 36.6852 12.7704 36.78 12.91C37.84 14.03 38.95 15.1 40.05 16.19C40.2502 16.3656 40.4605 16.5292 40.68 16.68C40.68 13.3 40.68 10.09 40.68 6.89001C40.723 6.27748 40.634 5.66286 40.4191 5.08768C40.2041 4.5125 39.8682 3.99016 39.434 3.55598C38.9998 3.12179 38.4775 2.78587 37.9023 2.57092C37.3271 2.35596 36.7125 2.26699 36.1 2.31001C26.2466 2.31001 16.4 2.31001 6.55996 2.31001C5.93423 2.26659 5.30649 2.35837 4.71939 2.57913C4.13229 2.7999 3.59959 3.14445 3.15749 3.5894C2.7154 4.03434 2.37426 4.56924 2.15727 5.15774C1.94029 5.74625 1.85253 6.37457 1.89996 7.00001V21.1V21.14ZM31 33.76C31.0039 35.2797 31.458 36.7641 32.305 38.0258C33.1519 39.2876 34.3537 40.2701 35.7587 40.8494C37.1636 41.4287 38.7086 41.5787 40.1988 41.2805C41.6889 40.9824 43.0573 40.2494 44.1311 39.1741C45.205 38.0989 45.9362 36.7295 46.2324 35.239C46.5286 33.7485 46.3766 32.2037 45.7955 30.7995C45.2144 29.3953 44.2303 28.1948 42.9675 27.3495C41.7046 26.5042 40.2196 26.052 38.7 26.05C37.6876 26.0487 36.6849 26.2473 35.7494 26.6344C34.814 27.0215 33.9642 27.5895 33.2488 28.3059C32.5334 29.0222 31.9664 29.8728 31.5805 30.8087C31.1946 31.7447 30.9973 32.7476 31 33.76Z" fill="#D62828"/>
<path d="M18.9201 10.94C18.9281 9.97599 19.222 9.03606 19.7646 8.23924C20.3072 7.44243 21.0741 6.82457 21.9681 6.46394C22.8622 6.10332 23.8431 6.01614 24.7867 6.21346C25.7303 6.41077 26.5942 6.88371 27.2688 7.57235C27.9434 8.261 28.3985 9.13437 28.5763 10.0818C28.7542 11.0293 28.6468 12.0083 28.2679 12.8947C27.889 13.7811 27.2555 14.5351 26.4476 15.0612C25.6398 15.5873 24.694 15.8618 23.7301 15.85C23.0907 15.8474 22.4582 15.7179 21.8692 15.469C21.2803 15.2201 20.7466 14.8568 20.2992 14.4C19.8517 13.9433 19.4994 13.4022 19.2627 12.8083C19.0259 12.2143 18.9095 11.5793 18.9201 10.94ZM23.8101 7.60999C23.1408 7.60405 22.4848 7.79697 21.9252 8.1643C21.3657 8.53163 20.9278 9.05682 20.6671 9.6733C20.4063 10.2898 20.3345 10.9698 20.4607 11.6271C20.5869 12.2845 20.9055 12.8895 21.3759 13.3656C21.8464 13.8417 22.4477 14.1674 23.1035 14.3014C23.7593 14.4354 24.4401 14.3717 25.0596 14.1183C25.6792 13.8649 26.2095 13.4333 26.5835 12.8782C26.9574 12.323 27.1581 11.6693 27.1601 11C27.1667 10.5563 27.0849 10.1158 26.9194 9.70414C26.7539 9.29246 26.5081 8.91789 26.1962 8.60229C25.8843 8.28669 25.5127 8.0364 25.103 7.86602C24.6933 7.69565 24.2538 7.60861 23.8101 7.60999Z" fill="#D62828"/>
<path d="M37.5999 31.85C37.1558 32.3988 36.6711 32.9136 36.1499 33.39C35.8999 33.59 35.4099 33.49 35.0299 33.53C35.0299 33.15 34.9199 32.63 35.1199 32.4C36.0499 31.4 37.0599 30.4 38.0399 29.4C38.1119 29.3066 38.2043 29.231 38.31 29.1789C38.4158 29.1269 38.5321 29.0999 38.6499 29.0999C38.7678 29.0999 38.8841 29.1269 38.9899 29.1789C39.0956 29.231 39.188 29.3066 39.2599 29.4C40.2599 30.4 41.2599 31.33 42.1699 32.4C42.2792 32.5593 42.3466 32.7436 42.3658 32.9359C42.385 33.1281 42.3555 33.3221 42.2799 33.5C41.9499 33.98 41.4699 33.77 41.1099 33.39L39.6499 31.77L39.3899 31.93V35.69C39.3899 36.18 39.3899 36.69 39.3899 37.17C39.3899 37.65 39.3899 38.33 38.6699 38.34C37.9499 38.35 37.8999 37.69 37.8999 37.12C37.8999 36.04 37.8999 34.96 37.8999 33.88V32L37.5999 31.85Z" fill="#D62828"/>
</svg>
