<svg width="48" height="48" viewBox="0 0 48 48" fill="none" xmlns="http://www.w3.org/2000/svg">
<path d="M47.5799 6.38994C47.588 5.64265 47.4468 4.90127 47.1649 4.20918C46.8829 3.51709 46.4657 2.88819 45.9377 2.35928C45.4097 1.83037 44.7816 1.41208 44.09 1.12887C43.3984 0.845672 42.6572 0.70325 41.9099 0.709942C37.5833 0.709942 33.2499 0.709942 28.9099 0.709942C27.576 0.703194 26.2837 1.17457 25.2674 2.03863C24.2511 2.90269 23.5779 4.10226 23.3699 5.41994C23.2333 6.82556 23.1965 8.23911 23.2599 9.64994C23.2599 10.1299 23.3899 10.5399 23.9399 10.5599C24.4899 10.5799 24.6899 10.1399 24.6799 9.61994C24.6799 8.53994 24.6799 7.46994 24.6799 6.38994C24.6719 5.25465 25.1132 4.16224 25.9075 3.35106C26.7018 2.53988 27.7847 2.07576 28.9199 2.05994C29.4499 2.05994 29.7299 2.15994 29.8599 2.74994C29.9752 3.6473 30.4306 4.46614 31.1322 5.03743C31.8337 5.60871 32.7278 5.88883 33.6299 5.81994C34.7299 5.81994 35.8399 5.81994 36.9499 5.81994C39.2999 5.80994 40.4199 4.99994 40.9999 2.64994C41.1299 2.14994 41.3499 2.04994 41.8199 2.05994C42.4061 2.05379 42.9873 2.16755 43.5279 2.39423C44.0685 2.62091 44.557 2.95572 44.9635 3.3781C45.3699 3.80048 45.6857 4.30151 45.8915 4.8504C46.0973 5.39929 46.1886 5.98446 46.1599 6.56994C46.1599 10.9999 46.1599 15.4299 46.1599 19.8599C46.1599 20.5399 45.9199 20.6599 45.3099 20.6499C43.7099 20.6499 42.1099 20.6499 40.5099 20.6499C39.9799 20.6499 39.4499 20.6999 39.5099 21.3699C39.5699 22.0399 40.0199 22.0299 40.5099 22.0199C42.1699 22.0199 43.8299 22.0199 45.5099 22.0199C46.0399 22.0199 46.1999 22.1599 46.1999 22.6899C46.1999 25.2233 46.1999 27.7466 46.1999 30.2599C46.1999 30.7599 46.0299 30.8599 45.5699 30.8599C42.2199 30.8599 38.8599 30.8599 35.5099 30.8599C34.5799 30.8599 34.1999 30.5099 34.1899 29.5999C34.1899 27.5066 34.1899 25.4133 34.1899 23.3199C34.1899 22.4099 34.5799 22.0699 35.5099 22.0499C36.0299 22.0499 36.5099 22.0499 37.0799 22.0499C37.6499 22.0499 37.8899 21.8599 37.8899 21.3799C37.8899 20.8999 37.5899 20.6799 37.1099 20.6899C36.3999 20.6899 35.6899 20.6899 34.9899 20.6899C34.7254 20.6747 34.4613 20.7263 34.2219 20.8398C33.9825 20.9534 33.7755 21.1254 33.6199 21.3399C33.0599 22.3999 32.1399 22.1899 31.2599 22.2199C30.5545 22.2667 29.8489 22.1324 29.2099 21.8299C28.5239 21.4716 27.7718 21.2572 26.9999 21.1999C26.3599 21.1999 26.0699 20.9399 26.1699 20.2499C26.2699 19.5599 26.2699 18.9199 25.5599 18.6699C25.0599 18.4999 25.0899 18.2099 25.0699 17.8399C24.938 15.5831 24.114 13.4217 22.7099 11.6499C22.3899 11.2499 22.0399 10.8299 21.4999 11.2599C20.9599 11.6899 21.2999 12.1199 21.6199 12.5299C22.7707 14.017 23.4654 15.806 23.6199 17.6799C23.6899 18.3999 23.4699 18.5399 22.7799 18.5399C18.5699 18.5399 14.3599 18.5399 10.1399 18.5399C9.89684 18.525 9.65304 18.525 9.40994 18.5399C9.31658 18.5378 9.22385 18.5558 9.13806 18.5927C9.05228 18.6296 8.97545 18.6846 8.91282 18.7538C8.85019 18.8231 8.80322 18.9051 8.77512 18.9941C8.74701 19.0832 8.73842 19.1773 8.74994 19.2699C8.74859 19.3557 8.76448 19.4408 8.79667 19.5203C8.82886 19.5997 8.87669 19.6719 8.93731 19.7326C8.99794 19.7932 9.07014 19.841 9.14961 19.8732C9.22908 19.9054 9.31421 19.9213 9.39994 19.9199C9.64994 19.9199 9.88994 19.9199 10.1399 19.9199H24.0999C24.3499 19.9199 24.7899 19.7299 24.7499 20.2799C24.7499 20.5799 24.8999 20.9999 24.4099 21.1099C23.3232 21.4321 22.2081 21.6497 21.0799 21.7599C15.0799 21.8199 9.14994 21.7599 3.17994 21.7599C2.96557 21.7938 2.74617 21.7751 2.54062 21.7054C2.33508 21.6358 2.14953 21.5172 1.99994 21.3599C1.86358 21.1915 1.77043 20.9923 1.7286 20.7797C1.68677 20.5671 1.69753 20.3475 1.75994 20.1399C1.87994 19.6999 2.33994 19.9499 2.62994 19.9399C3.82994 19.9399 5.02994 19.9399 6.22994 19.9399C6.71994 19.9399 7.10994 19.7899 7.12994 19.2499C7.14994 18.7099 6.73994 18.5399 6.25994 18.5299C5.35994 18.5299 4.46994 18.5299 3.57994 18.5299C2.97994 18.5299 2.78994 18.3999 2.83994 17.7699C2.98023 15.5711 3.89832 13.4939 5.42994 11.9099C8.63994 8.52994 14.5299 7.79994 18.9099 10.2199C19.3799 10.4699 19.8499 10.7299 20.1799 10.1499C20.5099 9.56994 20.0799 9.26994 19.6099 8.99994C18.5825 8.3823 17.4504 7.95861 16.2699 7.74994C15.7699 7.66994 15.6399 7.45994 15.6299 6.97994C15.6511 6.65241 15.6049 6.32402 15.4941 6.01506C15.3833 5.70611 15.2104 5.42316 14.9859 5.1837C14.7614 4.94425 14.4902 4.75338 14.189 4.6229C13.8879 4.49242 13.5632 4.4251 13.2349 4.4251C12.9067 4.4251 12.582 4.49242 12.2808 4.6229C11.9797 4.75338 11.7085 4.94425 11.484 5.1837C11.2595 5.42316 11.0866 5.70611 10.9758 6.01506C10.865 6.32402 10.8188 6.65241 10.8399 6.97994C10.8399 7.43994 10.6799 7.59994 10.2399 7.68994C7.97496 8.12666 5.90715 9.27131 4.33459 10.9589C2.76203 12.6465 1.76595 14.7898 1.48994 17.0799C1.38994 17.7699 1.55994 18.5699 0.619942 18.8399C0.529942 18.8399 0.469942 19.0299 0.419942 19.1399C0.252087 19.5608 0.184105 20.0148 0.221337 20.4663C0.258569 20.9178 0.400001 21.3545 0.634519 21.7422C0.869037 22.1298 1.19025 22.4578 1.57292 22.7003C1.95559 22.9428 2.38929 23.0933 2.83994 23.1399C3.36269 23.1749 3.88719 23.1749 4.40994 23.1399C4.84994 23.1399 4.95994 23.2199 4.91994 23.6999C4.81651 24.2199 4.91651 24.7597 5.19931 25.2081C5.48211 25.6565 5.92617 25.9793 6.43994 26.1099C10.2399 27.6899 14.0366 29.2599 17.8299 30.8199C19.5757 31.5304 21.4921 31.7113 23.3399 31.3399C26.2599 30.8199 29.1399 29.9199 32.1599 30.1799C32.4499 30.1799 32.7699 30.0799 32.9199 30.4999C33.4199 31.8299 34.4899 32.1699 35.7999 32.1599C38.9999 32.1599 42.1999 32.1599 45.3899 32.1599C45.9699 32.1599 46.1999 32.2799 46.1699 32.9099C46.1699 34.0499 46.1699 35.1899 46.1699 36.3199C46.1983 36.8859 46.1116 37.4518 45.9151 37.9833C45.7185 38.5148 45.4162 39.0009 45.0264 39.4122C44.6366 39.8235 44.1674 40.1515 43.6472 40.3762C43.127 40.601 42.5666 40.718 41.9999 40.7199C37.6399 40.7799 33.2699 40.7899 28.8999 40.7199C28.3364 40.7191 27.7788 40.6043 27.2607 40.3825C26.7427 40.1607 26.2748 39.8364 25.8853 39.4291C25.4957 39.0218 25.1926 38.54 24.9941 38.0126C24.7955 37.4851 24.7057 36.923 24.7299 36.3599C24.7299 35.4699 24.7299 34.5699 24.7299 33.6799C24.7299 33.1999 24.5799 32.7999 24.0299 32.7899C23.4799 32.7799 23.3099 33.1699 23.3099 33.6599V36.1499C23.2618 36.9504 23.3841 37.752 23.6686 38.5018C23.9531 39.2515 24.3934 39.9324 24.9604 40.4995C25.5275 41.0665 26.2084 41.5068 26.9581 41.7913C27.7079 42.0758 28.5095 42.1981 29.3099 42.1499C33.4699 42.1499 37.6233 42.1499 41.7699 42.1499C42.5643 42.1897 43.3581 42.061 44.0991 41.7723C44.8402 41.4836 45.5119 41.0414 46.07 40.4748C46.6281 39.9082 47.0601 39.2299 47.3376 38.4846C47.615 37.7392 47.7317 36.9436 47.6799 36.1499C47.6799 31.2599 47.6799 26.3699 47.6799 21.4799C47.6799 16.5899 47.5999 11.3999 47.5799 6.38994ZM39.5799 2.79994C39.4494 3.2592 39.175 3.66445 38.797 3.95607C38.4189 4.24769 37.9573 4.41029 37.4799 4.41994C36.7999 4.41994 36.1299 4.41994 35.4799 4.41994H33.4799C33.1569 4.42758 32.8364 4.36232 32.542 4.22901C32.2477 4.0957 31.9872 3.89778 31.7799 3.64994C31.4299 3.23994 31.0999 2.70994 31.2799 2.23994C31.4599 1.76994 32.0399 2.08994 32.4399 2.07994C34.6499 2.07994 36.8499 2.07994 39.0599 2.07994C39.6299 2.04994 39.7599 2.23994 39.5799 2.79994ZM13.2999 5.79994C14.0299 5.85994 14.2999 6.33994 14.2999 6.98994C14.2999 7.98994 13.5399 7.22994 13.2999 7.55994C12.8799 7.36994 12.2299 7.83994 12.2299 6.98994C12.2299 6.13994 12.6599 5.77994 13.2999 5.82994V5.79994ZM11.8099 23.2199C12.3899 23.2199 12.9699 23.2199 13.5399 23.2199C14.1099 23.2199 14.5999 23.3299 14.2499 24.2199L11.7799 23.4199L11.8099 23.2199ZM32.8099 28.2199C32.8099 28.6199 32.7299 28.8599 32.2599 28.8199C28.9799 28.5399 25.8699 29.5499 22.6999 30.0799C21.2407 30.3242 19.7422 30.1472 18.3799 29.5699L7.16994 24.9999C6.66994 24.7899 6.09994 24.5899 6.32994 23.9199C6.55994 23.2499 7.17994 23.3799 7.72994 23.5599C10.1799 24.3499 12.6299 25.1299 15.0699 25.9399C17.1799 26.6299 19.3399 26.1899 21.4799 26.2699C21.5663 26.2737 21.6524 26.2584 21.7322 26.2252C21.812 26.192 21.8835 26.1416 21.9417 26.0777C21.9999 26.0138 22.0434 25.9379 22.069 25.8553C22.0946 25.7727 22.1017 25.6856 22.0899 25.5999C22.0899 25.1299 21.7399 24.9199 21.2699 24.9199H17.2099C16.9999 24.9199 16.7799 24.9199 16.5699 24.9199C16.4535 24.9233 16.3377 24.9019 16.2302 24.857C16.1227 24.8122 16.026 24.7449 15.9465 24.6598C15.8671 24.5746 15.8066 24.4735 15.7693 24.3632C15.7319 24.2529 15.7185 24.1359 15.7299 24.0199C15.7304 23.9107 15.7542 23.8028 15.7996 23.7034C15.845 23.604 15.9111 23.5154 15.9934 23.4435C16.0757 23.3716 16.1723 23.3181 16.2769 23.2864C16.3815 23.2548 16.4916 23.2458 16.5999 23.2599H19.4299C20.7819 23.32 22.1343 23.151 23.4299 22.7599C25.0054 22.2675 26.7035 22.3418 28.2299 22.9699C29.4317 23.5049 30.7489 23.7284 32.0599 23.6199C32.6099 23.5699 32.8199 23.7299 32.7899 24.3199C32.7699 25.6099 32.7899 26.9299 32.8099 28.2599V28.2199Z" fill="#D62828"/>
</svg>
