<svg width="27" height="27" viewBox="0 0 27 27" fill="none" xmlns="http://www.w3.org/2000/svg">
<path d="M9.75 0C12.3359 0 14.8158 1.02723 16.6443 2.85571C18.4728 4.68419 19.5 7.16414 19.5 9.75C19.5 12.165 18.615 14.385 17.16 16.095L17.565 16.5H18.75L26.25 24L24 26.25L16.5 18.75V17.565L16.095 17.16C14.3256 18.6697 12.076 19.4993 9.75 19.5C7.16414 19.5 4.68419 18.4728 2.85571 16.6443C1.02723 14.8158 0 12.3359 0 9.75C0 7.16414 1.02723 4.68419 2.85571 2.85571C4.68419 1.02723 7.16414 0 9.75 0ZM9.75 3C6 3 3 6 3 9.75C3 13.5 6 16.5 9.75 16.5C13.5 16.5 16.5 13.5 16.5 9.75C16.5 6 13.5 3 9.75 3Z" fill="white"/>
</svg>
